<svg version="1.1" xmlns="http://www.w3.org/2000/svg" xmlns:xlink="http://www.w3.org/1999/xlink" width="43.88043" height="44.89214" viewBox="0,0,43.88043,44.89214"><defs><radialGradient cx="240.08321" cy="180.4765" r="17.0561" gradientUnits="userSpaceOnUse" id="color-1"><stop offset="0" stop-color="#ffffff"></stop><stop offset="1" stop-color="#ffffff" stop-opacity="0"></stop></radialGradient><linearGradient x1="239.96888" y1="179.92378" x2="261.94021" y2="179.92378" gradientUnits="userSpaceOnUse" id="color-2"><stop offset="0" stop-color="#ffffff"></stop><stop offset="1" stop-color="#ffffff" stop-opacity="0"></stop></linearGradient><linearGradient x1="240.03112" y1="180.01685" x2="218.05977" y2="180.01685" gradientUnits="userSpaceOnUse" id="color-3"><stop offset="0" stop-color="#ffffff"></stop><stop offset="1" stop-color="#ffffff" stop-opacity="0"></stop></linearGradient><linearGradient x1="240.02881" y1="179.92306" x2="250.57856" y2="199.1959" gradientUnits="userSpaceOnUse" id="color-4"><stop offset="0" stop-color="#ffffff"></stop><stop offset="1" stop-color="#ffffff" stop-opacity="0"></stop></linearGradient><linearGradient x1="239.97705" y1="180.02234" x2="229.42731" y2="160.74951" gradientUnits="userSpaceOnUse" id="color-5"><stop offset="0" stop-color="#ffffff"></stop><stop offset="1" stop-color="#ffffff" stop-opacity="0"></stop></linearGradient><linearGradient x1="239.94717" y1="179.92306" x2="229.39743" y2="199.19591" gradientUnits="userSpaceOnUse" id="color-6"><stop offset="0" stop-color="#ffffff"></stop><stop offset="1" stop-color="#ffffff" stop-opacity="0"></stop></linearGradient><linearGradient x1="239.99893" y1="180.02234" x2="250.54868" y2="160.74951" gradientUnits="userSpaceOnUse" id="color-7"><stop offset="0" stop-color="#ffffff"></stop><stop offset="1" stop-color="#ffffff" stop-opacity="0"></stop></linearGradient></defs><g transform="translate(-218.05978,-157.55392)"><g data-paper-data="{&quot;isPaintingLayer&quot;:true}" fill-rule="nonzero" stroke="none" stroke-width="0" stroke-linejoin="miter" stroke-miterlimit="10" stroke-dasharray="" stroke-dashoffset="0" style="mix-blend-mode: normal"><path d="M256.97535,180.4765c0,9.41983 -7.56286,17.0561 -16.89211,17.0561c-9.32925,0 -16.89211,-7.63628 -16.89211,-17.0561c0,-9.41983 7.56286,-17.0561 16.89211,-17.0561c9.32925,0 16.89211,7.63628 16.89211,17.0561z" fill="url(#color-1)" stroke-linecap="butt"></path><g stroke-linecap="round"><path d="M261.94021,186.6927l-21.97134,-6.88496l21.9091,-6.65289" data-paper-data="{&quot;origPos&quot;:null}" fill="url(#color-2)"></path><path d="M218.12202,173.24792l21.9091,6.6529l-21.97134,6.88496" data-paper-data="{&quot;origPos&quot;:null,&quot;index&quot;:null}" fill="url(#color-3)"></path></g><g data-paper-data="{&quot;origRot&quot;:0}" stroke-linecap="round"><path d="M244.64099,202.44607l-4.51039,-22.57873l16.35565,16.0238" data-paper-data="{&quot;origPos&quot;:null}" fill="url(#color-4)"></path><path d="M235.39476,157.55393l4.68407,22.41271l-16.58911,-15.96698" data-paper-data="{&quot;origPos&quot;:null,&quot;index&quot;:null}" fill="url(#color-5)"></path></g><g data-paper-data="{&quot;origRot&quot;:0,&quot;index&quot;:null}" stroke-linecap="round"><path d="M223.48974,195.89114l16.35566,-16.0238l-4.51039,22.57871" data-paper-data="{&quot;origPos&quot;:null}" fill="url(#color-6)"></path><path d="M256.48626,163.99967l-16.58911,15.96698l4.68408,-22.41271" data-paper-data="{&quot;origPos&quot;:null,&quot;index&quot;:null}" fill="url(#color-7)"></path></g></g></g></svg>