<svg preserveAspectRatio="xMidYMid" style="background: rgba(0, 0, 0, 0);" viewBox="-369.5284790039062 -29.818466186523438 1239.0569580078125 209.63693237304688" xmlns="http://www.w3.org/2000/svg" height="209.63693237304688px" width="1239.0569580078125px"><defs><linearGradient y2="0.8" x2="0.5" y1="0.2" x1="0.5" id="editing-sticker-gradient"><stop stop-color="#f9f9f9" offset="0"></stop><stop stop-color="#ffffff" offset="1"></stop></linearGradient><filter height="300%" width="300%" y="-100%" x="-100%" id="editing-sticker"></filter></defs><g filter="url(#editing-sticker)"><g transform="translate(-199.94001150131226, 118.64499711990356)"><path stroke-width="2.5" stroke="#000000" fill="url(#editing-sticker-gradient)" d="M59.05-80.79L59.05-80.79L59.05-80.79Q60.15-82.80 62.33-83.49L62.33-83.49L62.33-83.49Q64.52-84.18 67.79-84.18L67.79-84.18L67.79-84.18Q71.07-84.18 73.08-83.61L73.08-83.61L73.08-83.61Q75.09-83.03 76.07-82.23L76.07-82.23L76.07-82.23Q77.05-81.42 77.51-79.81L77.51-79.81L77.51-79.81Q78.20-77.97 78.20-73.95L78.20-73.95L78.20-10.12L78.20-10.12Q78.20-7.36 78.03-6.10L78.03-6.10L78.03-6.10Q77.86-4.83 76.94-3.10L76.94-3.10L76.94-3.10Q75.33 0 67.97 0L67.97 0L67.97 0Q63.48 0 61.76-0.69L61.76-0.69L61.76-0.69Q60.03-1.38 58.88-2.88L58.88-2.88L58.88-2.88Q33.01-37.38 24.84-47.96L24.84-47.96L24.84-10.12L24.84-10.12Q24.84-7.36 24.67-6.10L24.67-6.10L24.67-6.10Q24.50-4.83 23.57-3.10L23.57-3.10L23.57-3.10Q21.96 0 14.61 0L14.61 0L14.61 0Q7.48 0 5.87-3.10L5.87-3.10L5.87-3.10Q4.95-4.83 4.77-6.21L4.77-6.21L4.77-6.21Q4.60-7.59 4.60-10.24L4.60-10.24L4.60-74.41L4.60-74.41Q4.60-78.78 5.69-80.79L5.69-80.79L5.69-80.79Q6.79-82.80 8.97-83.49L8.97-83.49L8.97-83.49Q11.16-84.18 14.61-84.18L14.61-84.18L14.61-84.18Q18.05-84.18 20.07-83.55L20.07-83.55L20.07-83.55Q22.08-82.92 22.89-82.11L22.89-82.11L22.89-82.11Q23.35-81.77 25.53-79.12L25.53-79.12L25.53-79.12Q49.80-46.12 57.96-35.54L57.96-35.54L57.96-74.41L57.96-74.41Q57.96-78.78 59.05-80.79ZM145.82-37.55L145.82-37.55L145.82-37.55Q145.82-30.48 142.31-27.08L142.31-27.08L142.31-27.08Q138.81-23.69 134.55-23.69L134.55-23.69L107.30-23.69L107.30-23.69Q107.30-20.47 111.09-18.29L111.09-18.29L111.09-18.29Q114.88-16.10 118.68-16.10L118.68-16.10L118.68-16.10Q125.35-16.10 129.14-17.48L129.14-17.48L130.41-17.94L130.41-17.94Q133.17-19.21 135.01-19.21L135.01-19.21L135.01-19.21Q138.69-19.21 141.34-14.03L141.34-14.03L141.34-14.03Q142.83-10.93 142.83-8.74L142.83-8.74L142.83-8.74Q142.83 1.50 118.34 1.50L118.34 1.50L118.34 1.50Q109.83 1.50 103.21-1.44L103.21-1.44L103.21-1.44Q96.60-4.37 92.92-9.20L92.92-9.20L92.92-9.20Q85.67-18.52 85.67-30.02L85.67-30.02L85.67-30.02Q85.67-44.51 95.05-53.19L95.05-53.19L95.05-53.19Q104.42-61.87 118.45-61.87L118.45-61.87L118.45-61.87Q134.44-61.87 141.91-50.60L141.91-50.60L141.91-50.60Q145.82-44.62 145.82-37.55ZM107.06-34.16L121.56-34.16L121.56-34.16Q125.92-34.16 125.92-37.84L125.92-37.84L125.92-37.84Q125.92-40.48 123.91-42.09L123.91-42.09L123.91-42.09Q121.90-43.70 118.16-43.70L118.16-43.70L118.16-43.70Q114.42-43.70 110.75-40.65L110.75-40.65L110.75-40.65Q107.06-37.61 107.06-34.16L107.06-34.16ZM230.81-60.15L230.81-60.15L230.81-60.15Q238.16-56.93 238.16-52.21L238.16-52.21L238.16-52.21Q238.16-50.26 236.32-45.94L236.32-45.94L236.32-45.94Q234.49-41.63 233.22-38.41L233.22-38.41L220.57-7.59L220.57-7.59Q218.84-2.53 214.82-0.46L214.82-0.46L214.82-0.46Q213.09 0.35 210.45 0.35L210.45 0.35L210.45 0.35Q207.81 0.35 205.33-1.67L205.33-1.67L205.33-1.67Q202.86-3.68 202.06-5.75L202.06-5.75L201.13-7.71L201.13-7.71Q200.22-10.01 194.35-25.64L194.35-25.64L194.35-25.64Q193.20-22.89 190.96-16.62L190.96-16.62L190.96-16.62Q188.72-10.35 188.08-8.80L188.08-8.80L188.08-8.80Q187.45-7.25 187.28-6.73L187.28-6.73L187.28-6.73Q187.10-6.21 186.30-4.83L186.30-4.83L186.30-4.83Q185.50-3.45 184.46-2.42L184.46-2.42L184.46-2.42Q181.70 0.35 178.13 0.35L178.13 0.35L178.13 0.35Q174.57 0.35 172.16-1.67L172.16-1.67L172.16-1.67Q169.74-3.68 168.94-5.75L168.94-5.75L151.57-48.07L151.57-48.07Q150.42-51.52 150.42-52.55L150.42-52.55L150.42-52.55Q150.42-57.16 156.97-59.80L156.97-59.80L156.97-59.80Q160.66-61.30 162.95-61.30L162.95-61.30L162.95-61.30Q165.25-61.30 166.69-60.32L166.69-60.32L166.69-60.32Q168.13-59.34 168.70-58.36L168.70-58.36L168.70-58.36Q169.28-57.39 169.63-56.35L169.63-56.35L169.63-56.35Q171.58-51.75 177.79-34.73L177.79-34.73L184.57-53.36L184.57-53.36Q185.26-55.66 187.10-57.39L187.10-57.39L187.10-57.39Q190.44-60.72 193.89-60.72L193.89-60.72L193.89-60.72Q197.34-60.72 199.81-58.88L199.81-58.88L199.81-58.88Q202.28-57.04 203.20-55.20L203.20-55.20L204.13-53.25L204.13-53.25Q209.88-37.15 210.91-34.84L210.91-34.84L217.93-53.94L217.93-53.94Q220.69-61.30 226.20-61.30L226.20-61.30L226.20-61.30Q228.39-61.30 230.81-60.15ZM317.51-50.83L317.51-50.83L337.75-50.83L337.75-50.83Q343.97-50.60 345.35-47.61L345.35-47.61L345.35-47.61Q346.50-45.43 346.50-41.17L346.50-41.17L346.50-15.87L346.50-15.87Q346.50-12.19 343.28-8.86L343.28-8.86L343.28-8.86Q333.62 1.15 314.30 1.15L314.30 1.15L314.30 1.15Q297.16 1.15 284.51-11.79L284.51-11.79L284.51-11.79Q271.86-24.73 271.86-43.01L271.86-43.01L271.86-43.01Q271.86-61.30 284.74-73.54L284.74-73.54L284.74-73.54Q297.62-85.79 315.10-85.79L315.10-85.79L315.10-85.79Q328.67-85.79 340.75-76.82L340.75-76.82L340.75-76.82Q343.85-74.52 343.85-71.70L343.85-71.70L343.85-71.70Q343.85-68.89 341.21-65.20L341.21-65.20L341.21-65.20Q336.72-59.11 333.04-59.11L333.04-59.11L333.04-59.11Q330.86-59.11 326.03-62.27L326.03-62.27L326.03-62.27Q321.19-65.44 314.53-65.44L314.53-65.44L314.53-65.44Q305.79-65.44 299-59.28L299-59.28L299-59.28Q292.22-53.13 292.22-43.18L292.22-43.18L292.22-43.18Q292.22-33.23 299.12-26.28L299.12-26.28L299.12-26.28Q306.01-19.32 314.75-19.32L314.75-19.32L314.75-19.32Q321.08-19.32 326.14-21.39L326.14-21.39L326.14-33.93L317.06-33.93L317.06-33.93Q313.49-33.93 312.00-34.84L312.00-34.84L312.00-34.84Q310.50-35.77 310.04-37.55L310.04-37.55L310.04-37.55Q309.58-39.33 309.58-42.38L309.58-42.38L309.58-42.38Q309.58-45.43 310.10-47.27L310.10-47.27L310.10-47.27Q310.62-49.11 312.00-49.80L312.00-49.80L312.00-49.80Q314.06-50.83 317.51-50.83ZM395.03-54.16L395.03-54.16L395.03-54.16Q395.72-60.61 404.11-60.61L404.11-60.61L404.11-60.61Q408.60-60.61 410.78-59.91L410.78-59.91L410.78-59.91Q412.97-59.23 413.83-57.50L413.83-57.50L413.83-57.50Q414.69-55.78 414.86-54.45L414.86-54.45L414.86-54.45Q415.04-53.13 415.04-50.48L415.04-50.48L415.04-10.24L415.04-10.24Q415.04-7.59 414.86-6.27L414.86-6.27L414.86-6.27Q414.69-4.95 413.89-3.22L413.89-3.22L413.89-3.22Q412.28-0.23 406.01-0.23L406.01-0.23L406.01-0.23Q399.74-0.23 397.61-1.78L397.61-1.78L397.61-1.78Q395.49-3.33 395.14-6.33L395.14-6.33L395.14-6.33Q390.89-0.23 380.94-0.23L380.94-0.23L380.94-0.23Q370.99-0.23 362.48-9.32L362.48-9.32L362.48-9.32Q353.97-18.40 353.97-30.42L353.97-30.42L353.97-30.42Q353.97-42.44 362.54-51.46L362.54-51.46L362.54-51.46Q371.11-60.49 381.34-60.49L381.34-60.49L381.34-60.49Q385.25-60.49 388.47-59.11L388.47-59.11L388.47-59.11Q391.69-57.73 392.96-56.52L392.96-56.52L392.96-56.52Q394.22-55.32 395.03-54.16ZM374.10-30.25L374.10-30.25L374.10-30.25Q374.10-26.45 377.09-23.40L377.09-23.40L377.09-23.40Q380.08-20.36 384.33-20.36L384.33-20.36L384.33-20.36Q388.59-20.36 391.40-23.46L391.40-23.46L391.40-23.46Q394.22-26.57 394.22-30.30L394.22-30.30L394.22-30.30Q394.22-34.04 391.52-37.26L391.52-37.26L391.52-37.26Q388.82-40.48 384.27-40.48L384.27-40.48L384.27-40.48Q379.73-40.48 376.91-37.26L376.91-37.26L376.91-37.26Q374.10-34.04 374.10-30.25ZM444.02-52.55L444.02-52.55L444.02-52.55Q449.42-60.72 457.01-60.72L457.01-60.72L457.01-60.72Q468.74-60.72 474.49-50.72L474.49-50.72L474.49-50.72Q475.76-52.44 477.54-54.34L477.54-54.34L477.54-54.34Q479.32-56.23 483.23-58.48L483.23-58.48L483.23-58.48Q487.14-60.72 491.28-60.72L491.28-60.72L491.28-60.72Q500.48-60.72 506.69-53.65L506.69-53.65L506.69-53.65Q512.90-46.58 512.90-30.25L512.90-30.25L512.90-10.12L512.90-10.12Q512.90-7.48 512.73-6.15L512.73-6.15L512.73-6.15Q512.56-4.83 511.64-3.10L511.64-3.10L511.64-3.10Q510.14 0 502.78 0L502.78 0L502.78 0Q495.54 0 493.93-3.22L493.93-3.22L493.93-3.22Q493.12-4.95 492.95-6.27L492.95-6.27L492.95-6.27Q492.78-7.59 492.78-10.24L492.78-10.24L492.78-30.36L492.78-30.36Q492.78-40.37 485.65-40.37L485.65-40.37L485.65-40.37Q481.62-40.37 480.18-37.72L480.18-37.72L480.18-37.72Q478.75-35.08 478.75-30.25L478.75-30.25L478.75-10.12L478.75-10.12Q478.75-7.36 478.57-6.10L478.57-6.10L478.57-6.10Q478.40-4.83 477.48-3.10L477.48-3.10L477.48-3.10Q475.87 0 468.51 0L468.51 0L468.51 0Q461.27 0 459.66-3.22L459.66-3.22L459.66-3.22Q458.85-4.95 458.68-6.27L458.68-6.27L458.68-6.27Q458.51-7.59 458.51-10.24L458.51-10.24L458.51-30.36L458.51-30.36Q458.51-40.37 451.38-40.37L451.38-40.37L451.38-40.37Q444.48-40.37 444.48-30.36L444.48-30.36L444.48-10.01L444.48-10.01Q444.48-7.36 444.30-6.04L444.30-6.04L444.30-6.04Q444.13-4.71 443.21-2.99L443.21-2.99L443.21-2.99Q441.49 0 434.24 0L434.24 0L434.24 0Q427.00 0 425.39-3.10L425.39-3.10L425.39-3.10Q424.58-4.83 424.41-6.10L424.41-6.10L424.41-6.10Q424.24-7.36 424.24-10.12L424.24-10.12L424.24-50.60L424.24-50.60Q424.24-53.25 424.41-54.57L424.41-54.57L424.41-54.57Q424.58-55.89 425.50-57.50L425.50-57.50L425.50-57.50Q427.23-60.61 433.67-60.61L433.67-60.61L433.67-60.61Q440.11-60.61 442.06-58.54L442.06-58.54L442.06-58.54Q444.02-56.47 444.02-52.55ZM580.52-37.55L580.52-37.55L580.52-37.55Q580.52-30.48 577.01-27.08L577.01-27.08L577.01-27.08Q573.50-23.69 569.25-23.69L569.25-23.69L542.00-23.69L542.00-23.69Q542.00-20.47 545.79-18.29L545.79-18.29L545.79-18.29Q549.59-16.10 553.38-16.10L553.38-16.10L553.38-16.10Q560.05-16.10 563.85-17.48L563.85-17.48L565.11-17.94L565.11-17.94Q567.87-19.21 569.71-19.21L569.71-19.21L569.71-19.21Q573.39-19.21 576.03-14.03L576.03-14.03L576.03-14.03Q577.53-10.93 577.53-8.74L577.53-8.74L577.53-8.74Q577.53 1.50 553.03 1.50L553.03 1.50L553.03 1.50Q544.52 1.50 537.91-1.44L537.91-1.44L537.91-1.44Q531.30-4.37 527.62-9.20L527.62-9.20L527.62-9.20Q520.38-18.52 520.38-30.02L520.38-30.02L520.38-30.02Q520.38-44.51 529.75-53.19L529.75-53.19L529.75-53.19Q539.12-61.87 553.15-61.87L553.15-61.87L553.15-61.87Q569.13-61.87 576.61-50.60L576.61-50.60L576.61-50.60Q580.52-44.62 580.52-37.55ZM541.76-34.16L556.25-34.16L556.25-34.16Q560.63-34.16 560.63-37.84L560.63-37.84L560.63-37.84Q560.63-40.48 558.61-42.09L558.61-42.09L558.61-42.09Q556.60-43.70 552.86-43.70L552.86-43.70L552.86-43.70Q549.13-43.70 545.45-40.65L545.45-40.65L545.45-40.65Q541.76-37.61 541.76-34.16L541.76-34.16ZM656.65-85.33L656.65-85.33L656.65-85.33Q673.67-85.33 686.21-73.03L686.21-73.03L686.21-73.03Q698.74-60.72 698.74-42.49L698.74-42.49L698.74-42.49Q698.74-24.27 686.78-11.44L686.78-11.44L686.78-11.44Q674.82 1.38 657.34 1.38L657.34 1.38L657.34 1.38Q639.86 1.38 627.61-11.27L627.61-11.27L627.61-11.27Q615.37-23.92 615.37-41.40L615.37-41.40L615.37-41.40Q615.37-50.95 618.82-59.28L618.82-59.28L618.82-59.28Q622.26-67.62 628.01-73.26L628.01-73.26L628.01-73.26Q633.76-78.89 641.24-82.11L641.24-82.11L641.24-82.11Q648.72-85.33 656.65-85.33ZM635.72-41.98L635.72-41.98L635.72-41.98Q635.72-31.74 642.33-25.36L642.33-25.36L642.33-25.36Q648.95-18.98 657.11-18.98L657.11-18.98L657.11-18.98Q665.27-18.98 671.83-25.19L671.83-25.19L671.83-25.19Q678.38-31.40 678.38-41.86L678.38-41.86L678.38-41.86Q678.38-52.33 671.77-58.65L671.77-58.65L671.77-58.65Q665.16-64.98 657.00-64.98L657.00-64.98L657.00-64.98Q648.83-64.98 642.27-58.59L642.27-58.59L642.27-58.59Q635.72-52.21 635.72-41.98ZM761.30-81.19L761.30-81.19L761.30-81.19Q762.45-83.03 764.63-83.72L764.63-83.72L764.63-83.72Q766.82-84.41 770.10-84.41L770.10-84.41L770.10-84.41Q773.38-84.41 775.33-83.84L775.33-83.84L775.33-83.84Q777.28-83.26 778.32-82.45L778.32-82.45L778.32-82.45Q779.36-81.65 779.82-80.04L779.82-80.04L779.82-80.04Q780.50-78.09 780.50-74.06L780.50-74.06L780.50-39.33L780.50-39.33Q780.50-24.15 771.08-11.73L771.08-11.73L771.08-11.73Q766.48-5.87 759.23-2.24L759.23-2.24L759.23-2.24Q751.99 1.38 743.19 1.38L743.19 1.38L743.19 1.38Q734.39 1.38 727.20-2.30L727.20-2.30L727.20-2.30Q720.01-5.98 715.53-11.96L715.53-11.96L715.53-11.96Q706.22-24.15 706.22-39.56L706.22-39.56L706.22-74.17L706.22-74.17Q706.22-76.94 706.39-78.26L706.39-78.26L706.39-78.26Q706.56-79.58 707.48-81.31L707.48-81.31L707.48-81.31Q708.40-83.03 710.59-83.72L710.59-83.72L710.59-83.72Q712.77-84.41 716.45-84.41L716.45-84.41L716.45-84.41Q720.13-84.41 722.32-83.72L722.32-83.72L722.32-83.72Q724.50-83.03 725.31-81.31L725.31-81.31L725.31-81.31Q726.69-78.66 726.69-74.06L726.69-74.06L726.69-39.56L726.69-39.56Q726.69-32.55 730.13-26.22L730.13-26.22L730.13-26.22Q731.86-23 735.31-21.05L735.31-21.05L735.31-21.05Q738.76-19.09 743.48-19.09L743.48-19.09L743.48-19.09Q751.87-19.09 756.01-25.30L756.01-25.30L756.01-25.30Q760.15-31.51 760.15-39.68L760.15-39.68L760.15-74.87L760.15-74.87Q760.15-79.35 761.30-81.19ZM795.23-84.41L795.23-84.41L859.16-84.41L859.16-84.41Q862.85-84.41 864.57-83.55L864.57-83.55L864.57-83.55Q866.30-82.69 866.87-80.84L866.87-80.84L866.87-80.84Q867.45-79.01 867.45-76.02L867.45-76.02L867.45-76.02Q867.45-73.03 866.87-71.24L866.87-71.24L866.87-71.24Q866.30-69.46 864.91-68.77L864.91-68.77L864.91-68.77Q862.85-67.73 859.05-67.73L859.05-67.73L837.09-67.73L837.09-9.89L837.09-9.89Q837.09-7.25 836.91-5.98L836.91-5.98L836.91-5.98Q836.74-4.71 835.88-3.05L835.88-3.05L835.88-3.05Q835.01-1.38 832.83-0.69L832.83-0.69L832.83-0.69Q830.64 0 827.08 0L827.08 0L827.08 0Q823.51 0 821.39-0.69L821.39-0.69L821.39-0.69Q819.26-1.38 818.40-3.05L818.40-3.05L818.40-3.05Q817.53-4.71 817.36-6.04L817.36-6.04L817.36-6.04Q817.19-7.36 817.19-10.01L817.19-10.01L817.19-67.73L795.11-67.73L795.11-67.73Q791.43-67.73 789.71-68.60L789.71-68.60L789.71-68.60Q787.98-69.46 787.40-71.30L787.40-71.30L787.40-71.30Q786.83-73.14 786.83-76.13L786.83-76.13L786.83-76.13Q786.83-79.12 787.40-80.90L787.40-80.90L787.40-80.90Q787.98-82.69 789.36-83.38L789.36-83.38L789.36-83.38Q791.43-84.41 795.23-84.41ZM874.92-17.54L874.92-17.54L874.92-17.54Q876.07-19.78 878.43-20.59L878.43-20.59L878.43-20.59Q880.79-21.39 885.79-21.39L885.79-21.39L885.79-21.39Q890.79-21.39 893.03-19.21L893.03-19.21L893.03-19.21Q895.28-17.02 895.28-12.30L895.28-12.30L895.28-10.46L895.28-10.46Q895.28-7.71 895.10-6.38L895.10-6.38L895.10-6.38Q894.93-5.06 894.01-3.22L894.01-3.22L894.01-3.22Q892.17 0.12 885.21 0.12L885.21 0.12L885.21 0.12Q878.26 0.12 876.01-2.13L876.01-2.13L876.01-2.13Q873.77-4.37 873.77-10.81L873.77-10.81L873.77-10.81Q873.77-15.29 874.92-17.54ZM890.33-30.94L890.33-30.94L890.33-30.94Q888.15-30.36 884.47-30.36L884.47-30.36L884.47-30.36Q880.79-30.36 878.60-30.94L878.60-30.94L878.60-30.94Q876.42-31.51 875.55-33.01L875.55-33.01L875.55-33.01Q874.69-34.50 874.52-35.65L874.52-35.65L874.52-35.65Q874.35-36.80 874.35-39.22L874.35-39.22L874.35-75.67L874.35-75.67Q874.35-78.09 874.52-79.29L874.52-79.29L874.52-79.29Q874.69-80.50 875.61-82.00L875.61-82.00L875.61-82.00Q876.53-83.49 878.72-84.12L878.72-84.12L878.72-84.12Q880.90-84.76 884.58-84.76L884.58-84.76L884.58-84.76Q888.26-84.76 890.45-84.12L890.45-84.12L890.45-84.12Q892.63-83.49 893.49-81.94L893.49-81.94L893.49-81.94Q894.36-80.39 894.53-79.18L894.53-79.18L894.53-79.18Q894.70-77.97 894.70-75.56L894.70-75.56L894.70-39.10L894.70-39.10Q894.70-36.69 894.53-35.54L894.53-35.54L894.53-35.54Q894.36-34.38 893.44-32.95L893.44-32.95L893.44-32.95Q892.52-31.51 890.33-30.94Z"></path></g></g><style>text {
  font-size: 64px;
  font-family: Arial Black;
  dominant-baseline: central;
  text-anchor: middle;
}</style></svg>