<svg preserveAspectRatio="xMidYMid" style="background: rgba(0, 0, 0, 0);" viewBox="213.496875 12.200000000000003 73.00625 125.6" xmlns="http://www.w3.org/2000/svg" height="125.6px" width="73.00625px"><defs><linearGradient y2="0.8" x2="0.5" y1="0.2" x1="0.5" id="editing-sticker-gradient"><stop stop-color="#ffffff" offset="0"></stop><stop stop-color="#ffffff" offset="1"></stop></linearGradient><filter height="300%" width="300%" y="-100%" x="-100%" id="editing-sticker"></filter></defs><g filter="url(#editing-sticker)"><g transform="translate(230.19001233577728, 98.875)"><path stroke-width="2.5" stroke="#000000" fill="url(#editing-sticker-gradient)" d="M20.67-11.26L32.38-11.26L32.38-11.26Q35.01-11.26 36.13-10.66L36.13-10.66L36.13-10.66Q37.25-10.05 37.63-8.80L37.63-8.80L37.63-8.80Q38.02-7.55 38.02-5.54L38.02-5.54L38.02-5.54Q38.02-3.52 37.60-2.30L37.60-2.30L37.60-2.30Q37.18-1.09 36.22-0.64L36.22-0.64L36.22-0.64Q34.82 0.13 32.26 0.13L32.26 0.13L7.23 0.13L7.23 0.13Q4.93 0.13 3.26-1.60L3.26-1.60L3.26-1.60Q1.60-3.33 1.60-5.63L1.60-5.63L1.60-5.63Q1.60-9.09 4-12L4-12L4-12Q6.40-14.91 9.79-16.99L9.79-16.99L9.79-16.99Q13.18-19.07 16.58-21.09L16.58-21.09L16.58-21.09Q19.97-23.10 22.37-25.66L22.37-25.66L22.37-25.66Q24.77-28.22 24.77-31.10L24.77-31.10L24.77-31.10Q24.77-31.68 24.32-32.74L24.32-32.74L24.32-32.74Q23.87-33.79 23.33-34.46L23.33-34.46L23.33-34.46Q22.78-35.14 21.63-35.71L21.63-35.71L21.63-35.71Q20.48-36.29 18.43-36.29L18.43-36.29L18.43-36.29Q16.38-36.29 14.88-34.78L14.88-34.78L14.88-34.78Q13.38-33.28 13.18-31.81L13.18-31.81L12.93-30.34L12.93-29.95L12.93-29.95Q12.93-28.54 12.83-27.84L12.83-27.84L12.83-27.84Q12.74-27.14 12.22-26.24L12.22-26.24L12.22-26.24Q11.26-24.70 7.23-24.70L7.23-24.70L7.23-24.70Q2.75-24.70 1.92-27.14L1.92-27.14L1.92-27.14Q1.60-28.16 1.60-30.40L1.60-30.40L1.60-30.40Q1.60-37.06 6.37-42.34L6.37-42.34L6.37-42.34Q11.14-47.62 18.85-47.62L18.85-47.62L18.85-47.62Q26.56-47.62 31.36-42.27L31.36-42.27L31.36-42.27Q36.16-36.93 36.16-30.08L36.16-30.08L36.16-30.08Q36.16-26.43 34.56-23.17L34.56-23.17L34.56-23.17Q32.96-19.90 30.72-17.92L30.72-17.92L30.72-17.92Q25.98-13.70 22.27-12.22L22.27-12.22L20.67-11.58L20.67-11.26Z"></path></g></g><style>text {
  font-size: 64px;
  font-family: Arial Black;
  dominant-baseline: central;
  text-anchor: middle;
}</style></svg>