<svg version="1.1" xmlns="http://www.w3.org/2000/svg" xmlns:xlink="http://www.w3.org/1999/xlink" width="53.64449" height="9.20696" viewBox="0,0,53.64449,9.20696"><g transform="translate(-231.0635,-146.52929)"><g data-paper-data="{&quot;isPaintingLayer&quot;:true}" fill="#ffffff" fill-rule="nonzero" stroke-linecap="square" stroke-linejoin="miter" stroke-miterlimit="10" stroke-dasharray="" stroke-dashoffset="0" style="mix-blend-mode: normal"><g><path d="M237.10431,149.13776c0.16936,0.34508 0.25403,0.72964 0.25403,1.15366c0,0.42403 -0.08467,0.8073 -0.25403,1.14984c-0.16936,0.34126 -0.38774,0.61312 -0.65515,0.81558c-0.54118,0.41766 -1.10209,0.62649 -1.68274,0.62649h-1.22242v1.10399c0,0.15025 -0.0051,0.26295 -0.01529,0.33808c-0.00892,0.07513 -0.03947,0.16171 -0.09168,0.25976c-0.09168,0.17572 -0.34635,0.26359 -0.76401,0.26359c-0.45586,0 -0.72263,-0.12097 -0.80031,-0.36291c-0.03948,-0.11078 -0.05921,-0.28014 -0.05921,-0.50806v-5.42641c0,-0.15025 0.00446,-0.26295 0.01337,-0.33808c0.01019,-0.07513 0.04138,-0.16171 0.09359,-0.25976c0.09168,-0.17572 0.34572,-0.26359 0.7621,-0.26359h2.09339c0.57428,0 1.13201,0.20883 1.67319,0.6265c0.2674,0.20119 0.48579,0.47496 0.65515,0.82131zM234.77598,151.15284c0.1961,0 0.38837,-0.07194 0.57683,-0.21583c0.18973,-0.14389 0.2846,-0.35908 0.2846,-0.64559c0,-0.28651 -0.09487,-0.50298 -0.2846,-0.64941c-0.18846,-0.14771 -0.38392,-0.22156 -0.58638,-0.22156h-1.22242v1.7324zM237.99407,148.14072c0,-0.15025 0.00446,-0.26295 0.01337,-0.33808c0.01019,-0.07513 0.0382,-0.16172 0.08404,-0.25977c0.09168,-0.17572 0.34571,-0.26358 0.7621,-0.26358c0.39856,0 0.64623,0.08786 0.74301,0.26358c0.05221,0.09805 0.0834,0.18655 0.09359,0.2655c0.01019,0.07767 0.01528,0.19164 0.01528,0.34189v4.52678c0,0.23557 0.01911,0.38455 0.05731,0.44694c0.03948,0.06113 0.12606,0.09168 0.25976,0.09168c0.1337,0 0.22347,0.0051 0.26931,0.01529c0.04584,0.00892 0.10123,0.03629 0.16617,0.08213c0.12988,0.08532 0.19482,0.31706 0.19482,0.69525c0,0.41002 -0.06494,0.66087 -0.19482,0.75256c-0.16936,0.11715 -0.57364,0.13689 -1.21287,0.05921c-0.5017,-0.06621 -0.82768,-0.23302 -0.97794,-0.50043c-0.18209,-0.31834 -0.27313,-0.8264 -0.27313,-1.5242zM244.53638,150.25131c0.03948,-0.36418 0.29669,-0.54627 0.77166,-0.54627c0.25467,0 0.44377,0.01973 0.56728,0.05921c0.12479,0.0382 0.21137,0.10632 0.25976,0.20437c0.04839,0.09805 0.07767,0.18463 0.08786,0.25976c0.01019,0.07513 0.01529,0.18719 0.01529,0.33617v3.42278c0,0.15025 -0.0051,0.26295 -0.01529,0.33808c-0.01019,0.07513 -0.03756,0.16171 -0.08213,0.25976c-0.09169,0.16936 -0.31516,0.25404 -0.67042,0.25404c-0.35527,0 -0.59338,-0.04393 -0.71435,-0.1318c-0.12097,-0.08786 -0.191,-0.21711 -0.2101,-0.38773c-0.24066,0.34635 -0.64304,0.51953 -1.20714,0.51953c-0.5641,0 -1.08745,-0.25722 -1.57004,-0.77166c-0.4826,-0.51571 -0.7239,-1.11418 -0.7239,-1.79542c0,-0.68124 0.24257,-1.27781 0.72772,-1.7897c0.48642,-0.51189 1.01996,-0.76783 1.60061,-0.76783c0.22156,0 0.42339,0.03948 0.60548,0.11843c0.18209,0.07767 0.30879,0.15089 0.3801,0.21965c0.07258,0.06749 0.13178,0.1337 0.17762,0.19864zM242.75623,152.28549c0,0.21519 0.08468,0.40939 0.25404,0.58256c0.16935,0.17317 0.37436,0.25976 0.61503,0.25976c0.24194,0 0.44249,-0.08786 0.60166,-0.26359c0.16044,-0.177 0.24066,-0.37118 0.24066,-0.58256c0,-0.21265 -0.07704,-0.41001 -0.23111,-0.5921c-0.15281,-0.18209 -0.35781,-0.27314 -0.61503,-0.27314c-0.25722,0 -0.46604,0.09105 -0.62649,0.27314c-0.15917,0.18209 -0.23876,0.38073 -0.23876,0.59592zM250.01343,151.43553l-0.63604,-0.03821v1.34849c0,0.17572 0.02738,0.30306 0.08213,0.382c0.05603,0.07767 0.16044,0.11651 0.31324,0.11651c0.15281,0 0.26995,0.00509 0.35145,0.01528c0.08149,0.01019 0.16808,0.04138 0.25976,0.09359c0.15025,0.08404 0.22539,0.30242 0.22539,0.65514c0,0.41002 -0.09168,0.66087 -0.27504,0.75256c-0.09678,0.04584 -0.18272,0.07385 -0.25785,0.08404c-0.07513,0.00892 -0.18464,0.01337 -0.32853,0.01337c-0.67742,0 -1.19249,-0.1528 -1.54521,-0.45841c-0.35145,-0.30687 -0.52717,-0.82577 -0.52717,-1.55668v-1.4459c-0.12351,0.0191 -0.25722,0.02866 -0.40111,0.02866c-0.14389,0 -0.26295,-0.0554 -0.35718,-0.16618c-0.09422,-0.11078 -0.14134,-0.29987 -0.14134,-0.56728c0,-0.2674 0.01592,-0.46096 0.04775,-0.58065c0.03311,-0.12097 0.07895,-0.20755 0.13752,-0.25976c0.10441,-0.08532 0.23494,-0.12797 0.39156,-0.12797l0.32279,0.0382v-1.00659c0,-0.15025 0.00445,-0.26103 0.01337,-0.33234c0.01019,-0.07131 0.04138,-0.14963 0.09359,-0.23494c0.08532,-0.16299 0.33616,-0.24448 0.75255,-0.24448c0.4444,0 0.70863,0.12097 0.79266,0.3629c0.03311,0.10441 0.04966,0.27059 0.04966,0.49851v0.95693c0.28651,-0.02546 0.50298,-0.0382 0.64942,-0.0382c0.14643,0 0.25722,0.00509 0.33235,0.01528c0.07513,0.00892 0.16172,0.03947 0.25977,0.09168c0.16935,0.08532 0.25403,0.3368 0.25403,0.75446c0,0.41002 -0.08786,0.66087 -0.26359,0.75256c-0.09805,0.04584 -0.18464,0.07385 -0.25977,0.08404c-0.07513,0.00892 -0.18718,0.01337 -0.33616,0.01337zM254.42346,149.71459c0.4495,0 0.71308,0.12351 0.79075,0.37054c0.03947,0.12479 0.05921,0.28842 0.05921,0.49088c0,0.20119 -0.02101,0.36227 -0.06303,0.48324c-0.04202,0.12097 -0.10887,0.20755 -0.20056,0.25976c-0.13752,0.07767 -0.33616,0.11651 -0.59593,0.11651l-0.62649,-0.0382v2.62056c0,0.24703 -0.03119,0.43103 -0.09359,0.552c-0.06112,0.12097 -0.15536,0.20118 -0.28269,0.24066c-0.12733,0.0382 -0.29223,0.0573 -0.4947,0.0573c-0.20119,0 -0.36227,-0.02101 -0.48324,-0.06303c-0.12097,-0.04202 -0.20755,-0.11014 -0.25976,-0.20437c-0.05221,-0.0955 -0.0834,-0.18209 -0.09359,-0.25976c-0.00892,-0.07895 -0.01337,-0.19355 -0.01337,-0.34381v-2.59h-0.35144c-0.17063,-0.01401 -0.2916,-0.05348 -0.36291,-0.11842c-0.12351,-0.12351 -0.18527,-0.36163 -0.18527,-0.71435c0,-0.53354 0.19228,-0.8003 0.57683,-0.8003h0.32279v-0.51953c0,-0.5017 0.17891,-0.95629 0.53672,-1.36377c0.35908,-0.40748 0.87798,-0.61121 1.55667,-0.61121c0.14898,0 0.26104,0.00509 0.33616,0.01528c0.07513,0.00892 0.16172,0.03947 0.25977,0.09168c0.17572,0.08532 0.26358,0.3368 0.26358,0.75447c0,0.31197 -0.05539,0.53672 -0.16617,0.67424c-0.09168,0.10441 -0.23494,0.16299 -0.42976,0.17572c-0.05858,0 -0.15025,0 -0.27504,0c-0.24067,0 -0.361,0.08149 -0.361,0.24448v0.53863zM255.46939,152.28549c0,-0.78184 0.27377,-1.42679 0.82131,-1.93486c0.54755,-0.50934 1.1734,-0.76402 1.87756,-0.76402c0.70416,0 1.32684,0.25277 1.86801,0.75829c0.54118,0.50552 0.81176,1.1492 0.81176,1.93104c0,0.54118 -0.14007,1.02251 -0.42021,1.44399c-0.28014,0.42021 -0.62076,0.72963 -1.02186,0.92827c-0.4011,0.19864 -0.81686,0.29797 -1.24725,0.29797c-0.43039,0 -0.84806,-0.10569 -1.25298,-0.31707c-0.40366,-0.21265 -0.74428,-0.52589 -1.02187,-0.93973c-0.27632,-0.41384 -0.41447,-0.8818 -0.41447,-1.40387zM257.51312,152.98647c0.20883,0.15917 0.42085,0.23875 0.63604,0.23875c0.21519,0 0.43039,-0.08149 0.64559,-0.24448c0.21519,-0.16299 0.32279,-0.40429 0.32279,-0.7239c0,-0.31961 -0.10124,-0.55773 -0.3037,-0.71435c-0.20246,-0.15662 -0.42084,-0.23494 -0.65514,-0.23494c-0.2343,0 -0.45267,0.08149 -0.65514,0.24448c-0.20246,0.16299 -0.3037,0.40302 -0.3037,0.72009c0,0.31579 0.10442,0.5539 0.31324,0.71435zM264.98325,149.76424c0.12479,0.0382 0.22793,0.10506 0.30942,0.20056c0.0815,0.09422 0.12224,0.24575 0.12224,0.45458c0,0.20756 -0.06239,0.43549 -0.18718,0.68379c-0.12351,0.24703 -0.30242,0.37055 -0.53672,0.37055c-0.11715,0 -0.22984,-0.02547 -0.33808,-0.07641c-0.10696,-0.05221 -0.2483,-0.07831 -0.42402,-0.07831c-0.17572,0 -0.34063,0.06176 -0.4947,0.18527c-0.15281,0.12351 -0.2292,0.27313 -0.2292,0.44886v2.05519c0,0.14898 -0.00509,0.26104 -0.01527,0.33617c-0.00892,0.07513 -0.03948,0.16171 -0.09169,0.25976c-0.09805,0.16936 -0.35272,0.25404 -0.76401,0.25404c-0.31324,0 -0.53799,-0.0554 -0.67424,-0.16618c-0.10442,-0.09169 -0.16299,-0.23175 -0.17572,-0.42021c0,-0.06494 0,-0.15981 0,-0.28459v-3.43232c0,-0.15025 0.00446,-0.26232 0.01337,-0.33617c0.01019,-0.07513 0.0382,-0.15853 0.08404,-0.25021c0.09168,-0.17572 0.34571,-0.26359 0.7621,-0.26359c0.3922,0 0.63668,0.07513 0.73345,0.22539c0.07258,0.10314 0.10887,0.2101 0.10887,0.32089c0.03184,-0.04457 0.07894,-0.09932 0.14134,-0.16426c0.06239,-0.06621 0.19419,-0.15471 0.39538,-0.26549c0.20246,-0.11078 0.38009,-0.16618 0.5329,-0.16618c0.15407,0 0.28269,0.00828 0.38583,0.02483c0.10442,0.01655 0.21838,0.04457 0.34189,0.08404zM267.63406,150.38883c0.30688,-0.46223 0.67551,-0.69334 1.10591,-0.69334c0.66469,0 1.16002,0.28332 1.486,0.84996c0.07258,-0.09805 0.15917,-0.20056 0.25977,-0.30751c0.10059,-0.10824 0.26168,-0.22538 0.48324,-0.35145c0.22156,-0.12733 0.45013,-0.191 0.6857,-0.191c0.5208,0 0.95693,0.20056 1.30837,0.60166c0.35272,0.39983 0.52908,1.06261 0.52908,1.98834v1.71139c0,0.15025 -0.00509,0.26295 -0.01528,0.33808c-0.00892,0.07513 -0.03947,0.16172 -0.09168,0.25977c-0.08531,0.17572 -0.33616,0.26359 -0.75255,0.26359c-0.41129,0 -0.66215,-0.09105 -0.75256,-0.27314c-0.04584,-0.09805 -0.07385,-0.18463 -0.08404,-0.25976c-0.01019,-0.07513 -0.01528,-0.18783 -0.01528,-0.33808v-1.71139c0,-0.56664 -0.20182,-0.84996 -0.60548,-0.84996c-0.22793,0 -0.38264,0.07513 -0.46414,0.22538c-0.0815,0.14898 -0.12224,0.36036 -0.12224,0.63413v1.71139c0,0.15662 -0.00509,0.27123 -0.01528,0.34381c-0.01019,0.07131 -0.04139,0.15598 -0.0936,0.25403c-0.09041,0.17572 -0.34444,0.26359 -0.7621,0.26359c-0.41129,0 -0.66215,-0.09105 -0.75255,-0.27313c-0.04584,-0.09805 -0.07385,-0.18463 -0.08404,-0.25976c-0.00892,-0.07513 -0.01337,-0.18782 -0.01337,-0.33808v-1.71139c0,-0.56664 -0.20247,-0.84996 -0.60739,-0.84996c-0.39092,0 -0.58638,0.28332 -0.58638,0.84996v1.7324c0,0.14898 -0.00509,0.26103 -0.01528,0.33616c-0.00892,0.07513 -0.03947,0.16172 -0.09168,0.25977c-0.09805,0.16936 -0.35272,0.25403 -0.76402,0.25403c-0.41002,0 -0.66087,-0.08786 -0.75255,-0.26359c-0.04584,-0.09805 -0.07385,-0.18272 -0.08404,-0.25403c-0.00892,-0.07258 -0.01337,-0.18718 -0.01337,-0.34381v-3.44188c0,-0.15025 0.00446,-0.26231 0.01337,-0.33617c0.01019,-0.07513 0.04138,-0.15853 0.09359,-0.25021c0.09805,-0.17572 0.32917,-0.26358 0.69335,-0.26358c0.36545,0 0.60357,0.05857 0.71435,0.17572c0.11078,0.11715 0.16618,0.28651 0.16618,0.50807zM279.24346,151.66472c0,0.40111 -0.09996,0.6978 -0.29987,0.89007c-0.19864,0.19227 -0.4183,0.28841 -0.65897,0.28841h-2.31687c0,0.18337 0.10696,0.3368 0.32089,0.46032c0.21519,0.12351 0.43039,0.18528 0.64559,0.18528c0.37818,0 0.67488,-0.03884 0.89008,-0.11652l0.10887,-0.04011c0.15663,-0.07131 0.28651,-0.10696 0.38965,-0.10696c0.20883,0 0.38837,0.14643 0.53863,0.4393c0.08531,0.177 0.12797,0.32726 0.12797,0.45077c0,0.58065 -0.69461,0.87097 -2.08384,0.87097c-0.4826,0 -0.91172,-0.0834 -1.28736,-0.25021c-0.37437,-0.16681 -0.66533,-0.3871 -0.87288,-0.66088c-0.41129,-0.52717 -0.61694,-1.11673 -0.61694,-1.76868c0,-0.82131 0.26549,-1.47837 0.79648,-1.97116c0.53226,-0.49279 1.19568,-0.73918 1.99025,-0.73918c0.90663,0 1.57196,0.31961 1.99598,0.95883c0.22156,0.33872 0.33235,0.70863 0.33235,1.10973zM277.17871,151.95313c0.24831,0 0.37246,-0.10378 0.37246,-0.31133c0,-0.15025 -0.0573,-0.27123 -0.1719,-0.36291c-0.11333,-0.09169 -0.27632,-0.13752 -0.48897,-0.13752c-0.21137,0 -0.42149,0.08659 -0.63031,0.25976c-0.20883,0.17317 -0.31324,0.35717 -0.31324,0.552zM283.68764,149.9648c0.0815,0.09422 0.12224,0.24575 0.12224,0.45458c0,0.20756 -0.06239,0.43549 -0.18718,0.68379c-0.12351,0.24703 -0.30242,0.37055 -0.53672,0.37055c-0.11715,0 -0.22984,-0.02547 -0.33808,-0.07641c-0.10696,-0.05221 -0.24831,-0.07831 -0.42403,-0.07831c-0.17572,0 -0.34062,0.06176 -0.4947,0.18527c-0.15281,0.12351 -0.2292,0.27313 -0.2292,0.44886v2.05519c0,0.14898 -0.00509,0.26104 -0.01527,0.33617c-0.00892,0.07513 -0.03948,0.16171 -0.09169,0.25976c-0.09805,0.16936 -0.35272,0.25404 -0.76401,0.25404c-0.31324,0 -0.53799,-0.0554 -0.67424,-0.16618c-0.10442,-0.09169 -0.16299,-0.23175 -0.17572,-0.42021c0,-0.06494 0,-0.15981 0,-0.28459v-3.43232c0,-0.15025 0.00446,-0.26232 0.01337,-0.33617c0.01019,-0.07513 0.03821,-0.15853 0.08405,-0.25021c0.09168,-0.17572 0.34571,-0.26359 0.7621,-0.26359c0.3922,0 0.63668,0.07513 0.73345,0.22539c0.07258,0.10314 0.10887,0.2101 0.10887,0.32089c0.03184,-0.04457 0.07894,-0.09932 0.14134,-0.16426c0.06239,-0.06621 0.19419,-0.15471 0.39538,-0.26549c0.20246,-0.11078 0.38009,-0.16618 0.5329,-0.16618c0.15407,0 0.28269,0.00828 0.38583,0.02483c0.10442,0.01655 0.21839,0.04457 0.3419,0.08404c0,0 0.22793,0.10505 0.30942,0.20055z" stroke="#000000" stroke-width="1.5"></path><path d="M237.10431,149.13776c0.16936,0.34508 0.25403,0.72964 0.25403,1.15366c0,0.42403 -0.08467,0.8073 -0.25403,1.14984c-0.16936,0.34126 -0.38774,0.61312 -0.65515,0.81558c-0.54118,0.41766 -1.10209,0.62649 -1.68274,0.62649h-1.22242v1.10399c0,0.15025 -0.0051,0.26295 -0.01529,0.33808c-0.00892,0.07513 -0.03947,0.16171 -0.09168,0.25976c-0.09168,0.17572 -0.34635,0.26359 -0.76401,0.26359c-0.45586,0 -0.72263,-0.12097 -0.80031,-0.36291c-0.03948,-0.11078 -0.05921,-0.28014 -0.05921,-0.50806v-5.42641c0,-0.15025 0.00446,-0.26295 0.01337,-0.33808c0.01019,-0.07513 0.04138,-0.16171 0.09359,-0.25976c0.09168,-0.17572 0.34572,-0.26359 0.7621,-0.26359h2.09339c0.57428,0 1.13201,0.20883 1.67319,0.6265c0.2674,0.20119 0.48579,0.47496 0.65515,0.82131zM234.77598,151.15284c0.1961,0 0.38837,-0.07194 0.57683,-0.21583c0.18973,-0.14389 0.2846,-0.35908 0.2846,-0.64559c0,-0.28651 -0.09487,-0.50298 -0.2846,-0.64941c-0.18846,-0.14771 -0.38392,-0.22156 -0.58638,-0.22156h-1.22242v1.7324zM237.99407,148.14072c0,-0.15025 0.00446,-0.26295 0.01337,-0.33808c0.01019,-0.07513 0.0382,-0.16172 0.08404,-0.25977c0.09168,-0.17572 0.34571,-0.26358 0.7621,-0.26358c0.39856,0 0.64623,0.08786 0.74301,0.26358c0.05221,0.09805 0.0834,0.18655 0.09359,0.2655c0.01019,0.07767 0.01528,0.19164 0.01528,0.34189v4.52678c0,0.23557 0.01911,0.38455 0.05731,0.44694c0.03948,0.06113 0.12606,0.09168 0.25976,0.09168c0.1337,0 0.22347,0.0051 0.26931,0.01529c0.04584,0.00892 0.10123,0.03629 0.16617,0.08213c0.12988,0.08532 0.19482,0.31706 0.19482,0.69525c0,0.41002 -0.06494,0.66087 -0.19482,0.75256c-0.16936,0.11715 -0.57364,0.13689 -1.21287,0.05921c-0.5017,-0.06621 -0.82768,-0.23302 -0.97794,-0.50043c-0.18209,-0.31834 -0.27313,-0.8264 -0.27313,-1.5242zM244.53638,150.25131c0.03948,-0.36418 0.29669,-0.54627 0.77166,-0.54627c0.25467,0 0.44377,0.01973 0.56728,0.05921c0.12479,0.0382 0.21137,0.10632 0.25976,0.20437c0.04839,0.09805 0.07767,0.18463 0.08786,0.25976c0.01019,0.07513 0.01529,0.18719 0.01529,0.33617v3.42278c0,0.15025 -0.0051,0.26295 -0.01529,0.33808c-0.01019,0.07513 -0.03756,0.16171 -0.08213,0.25976c-0.09169,0.16936 -0.31516,0.25404 -0.67042,0.25404c-0.35527,0 -0.59338,-0.04393 -0.71435,-0.1318c-0.12097,-0.08786 -0.191,-0.21711 -0.2101,-0.38773c-0.24066,0.34635 -0.64304,0.51953 -1.20714,0.51953c-0.5641,0 -1.08745,-0.25722 -1.57004,-0.77166c-0.4826,-0.51571 -0.7239,-1.11418 -0.7239,-1.79542c0,-0.68124 0.24257,-1.27781 0.72772,-1.7897c0.48642,-0.51189 1.01996,-0.76783 1.60061,-0.76783c0.22156,0 0.42339,0.03948 0.60548,0.11843c0.18209,0.07767 0.30879,0.15089 0.3801,0.21965c0.07258,0.06749 0.13178,0.1337 0.17762,0.19864zM242.75623,152.28549c0,0.21519 0.08468,0.40939 0.25404,0.58256c0.16935,0.17317 0.37436,0.25976 0.61503,0.25976c0.24194,0 0.44249,-0.08786 0.60166,-0.26359c0.16044,-0.177 0.24066,-0.37118 0.24066,-0.58256c0,-0.21265 -0.07704,-0.41001 -0.23111,-0.5921c-0.15281,-0.18209 -0.35781,-0.27314 -0.61503,-0.27314c-0.25722,0 -0.46604,0.09105 -0.62649,0.27314c-0.15917,0.18209 -0.23876,0.38073 -0.23876,0.59592zM250.01343,151.43553l-0.63604,-0.03821v1.34849c0,0.17572 0.02738,0.30306 0.08213,0.382c0.05603,0.07767 0.16044,0.11651 0.31324,0.11651c0.15281,0 0.26995,0.00509 0.35145,0.01528c0.08149,0.01019 0.16808,0.04138 0.25976,0.09359c0.15025,0.08404 0.22539,0.30242 0.22539,0.65514c0,0.41002 -0.09168,0.66087 -0.27504,0.75256c-0.09678,0.04584 -0.18272,0.07385 -0.25785,0.08404c-0.07513,0.00892 -0.18464,0.01337 -0.32853,0.01337c-0.67742,0 -1.19249,-0.1528 -1.54521,-0.45841c-0.35145,-0.30687 -0.52717,-0.82577 -0.52717,-1.55668v-1.4459c-0.12351,0.0191 -0.25722,0.02866 -0.40111,0.02866c-0.14389,0 -0.26295,-0.0554 -0.35718,-0.16618c-0.09422,-0.11078 -0.14134,-0.29987 -0.14134,-0.56728c0,-0.2674 0.01592,-0.46096 0.04775,-0.58065c0.03311,-0.12097 0.07895,-0.20755 0.13752,-0.25976c0.10441,-0.08532 0.23494,-0.12797 0.39156,-0.12797l0.32279,0.0382v-1.00659c0,-0.15025 0.00445,-0.26103 0.01337,-0.33234c0.01019,-0.07131 0.04138,-0.14963 0.09359,-0.23494c0.08532,-0.16299 0.33616,-0.24448 0.75255,-0.24448c0.4444,0 0.70863,0.12097 0.79266,0.3629c0.03311,0.10441 0.04966,0.27059 0.04966,0.49851v0.95693c0.28651,-0.02546 0.50298,-0.0382 0.64942,-0.0382c0.14643,0 0.25722,0.00509 0.33235,0.01528c0.07513,0.00892 0.16172,0.03947 0.25977,0.09168c0.16935,0.08532 0.25403,0.3368 0.25403,0.75446c0,0.41002 -0.08786,0.66087 -0.26359,0.75256c-0.09805,0.04584 -0.18464,0.07385 -0.25977,0.08404c-0.07513,0.00892 -0.18718,0.01337 -0.33616,0.01337zM254.42346,149.71459c0.4495,0 0.71308,0.12351 0.79075,0.37054c0.03947,0.12479 0.05921,0.28842 0.05921,0.49088c0,0.20119 -0.02101,0.36227 -0.06303,0.48324c-0.04202,0.12097 -0.10887,0.20755 -0.20056,0.25976c-0.13752,0.07767 -0.33616,0.11651 -0.59593,0.11651l-0.62649,-0.0382v2.62056c0,0.24703 -0.03119,0.43103 -0.09359,0.552c-0.06112,0.12097 -0.15536,0.20118 -0.28269,0.24066c-0.12733,0.0382 -0.29223,0.0573 -0.4947,0.0573c-0.20119,0 -0.36227,-0.02101 -0.48324,-0.06303c-0.12097,-0.04202 -0.20755,-0.11014 -0.25976,-0.20437c-0.05221,-0.0955 -0.0834,-0.18209 -0.09359,-0.25976c-0.00892,-0.07895 -0.01337,-0.19355 -0.01337,-0.34381v-2.59h-0.35144c-0.17063,-0.01401 -0.2916,-0.05348 -0.36291,-0.11842c-0.12351,-0.12351 -0.18527,-0.36163 -0.18527,-0.71435c0,-0.53354 0.19228,-0.8003 0.57683,-0.8003h0.32279v-0.51953c0,-0.5017 0.17891,-0.95629 0.53672,-1.36377c0.35908,-0.40748 0.87798,-0.61121 1.55667,-0.61121c0.14898,0 0.26104,0.00509 0.33616,0.01528c0.07513,0.00892 0.16172,0.03947 0.25977,0.09168c0.17572,0.08532 0.26358,0.3368 0.26358,0.75447c0,0.31197 -0.05539,0.53672 -0.16617,0.67424c-0.09168,0.10441 -0.23494,0.16299 -0.42976,0.17572c-0.05858,0 -0.15025,0 -0.27504,0c-0.24067,0 -0.361,0.08149 -0.361,0.24448v0.53863zM255.46939,152.28549c0,-0.78184 0.27377,-1.42679 0.82131,-1.93486c0.54755,-0.50934 1.1734,-0.76402 1.87756,-0.76402c0.70416,0 1.32684,0.25277 1.86801,0.75829c0.54118,0.50552 0.81176,1.1492 0.81176,1.93104c0,0.54118 -0.14007,1.02251 -0.42021,1.44399c-0.28014,0.42021 -0.62076,0.72963 -1.02186,0.92827c-0.4011,0.19864 -0.81686,0.29797 -1.24725,0.29797c-0.43039,0 -0.84806,-0.10569 -1.25298,-0.31707c-0.40366,-0.21265 -0.74428,-0.52589 -1.02187,-0.93973c-0.27632,-0.41384 -0.41447,-0.8818 -0.41447,-1.40387zM257.51312,152.98647c0.20883,0.15917 0.42085,0.23875 0.63604,0.23875c0.21519,0 0.43039,-0.08149 0.64559,-0.24448c0.21519,-0.16299 0.32279,-0.40429 0.32279,-0.7239c0,-0.31961 -0.10124,-0.55773 -0.3037,-0.71435c-0.20246,-0.15662 -0.42084,-0.23494 -0.65514,-0.23494c-0.2343,0 -0.45267,0.08149 -0.65514,0.24448c-0.20246,0.16299 -0.3037,0.40302 -0.3037,0.72009c0,0.31579 0.10442,0.5539 0.31324,0.71435zM264.98325,149.76424c0.12479,0.0382 0.22793,0.10506 0.30942,0.20056c0.0815,0.09422 0.12224,0.24575 0.12224,0.45458c0,0.20756 -0.06239,0.43549 -0.18718,0.68379c-0.12351,0.24703 -0.30242,0.37055 -0.53672,0.37055c-0.11715,0 -0.22984,-0.02547 -0.33808,-0.07641c-0.10696,-0.05221 -0.2483,-0.07831 -0.42402,-0.07831c-0.17572,0 -0.34063,0.06176 -0.4947,0.18527c-0.15281,0.12351 -0.2292,0.27313 -0.2292,0.44886v2.05519c0,0.14898 -0.00509,0.26104 -0.01527,0.33617c-0.00892,0.07513 -0.03948,0.16171 -0.09169,0.25976c-0.09805,0.16936 -0.35272,0.25404 -0.76401,0.25404c-0.31324,0 -0.53799,-0.0554 -0.67424,-0.16618c-0.10442,-0.09169 -0.16299,-0.23175 -0.17572,-0.42021c0,-0.06494 0,-0.15981 0,-0.28459v-3.43232c0,-0.15025 0.00446,-0.26232 0.01337,-0.33617c0.01019,-0.07513 0.0382,-0.15853 0.08404,-0.25021c0.09168,-0.17572 0.34571,-0.26359 0.7621,-0.26359c0.3922,0 0.63668,0.07513 0.73345,0.22539c0.07258,0.10314 0.10887,0.2101 0.10887,0.32089c0.03184,-0.04457 0.07894,-0.09932 0.14134,-0.16426c0.06239,-0.06621 0.19419,-0.15471 0.39538,-0.26549c0.20246,-0.11078 0.38009,-0.16618 0.5329,-0.16618c0.15407,0 0.28269,0.00828 0.38583,0.02483c0.10442,0.01655 0.21838,0.04457 0.34189,0.08404zM267.63406,150.38883c0.30688,-0.46223 0.67551,-0.69334 1.10591,-0.69334c0.66469,0 1.16002,0.28332 1.486,0.84996c0.07258,-0.09805 0.15917,-0.20056 0.25977,-0.30751c0.10059,-0.10824 0.26168,-0.22538 0.48324,-0.35145c0.22156,-0.12733 0.45013,-0.191 0.6857,-0.191c0.5208,0 0.95693,0.20056 1.30837,0.60166c0.35272,0.39983 0.52908,1.06261 0.52908,1.98834v1.71139c0,0.15025 -0.00509,0.26295 -0.01528,0.33808c-0.00892,0.07513 -0.03947,0.16172 -0.09168,0.25977c-0.08531,0.17572 -0.33616,0.26359 -0.75255,0.26359c-0.41129,0 -0.66215,-0.09105 -0.75256,-0.27314c-0.04584,-0.09805 -0.07385,-0.18463 -0.08404,-0.25976c-0.01019,-0.07513 -0.01528,-0.18783 -0.01528,-0.33808v-1.71139c0,-0.56664 -0.20182,-0.84996 -0.60548,-0.84996c-0.22793,0 -0.38264,0.07513 -0.46414,0.22538c-0.0815,0.14898 -0.12224,0.36036 -0.12224,0.63413v1.71139c0,0.15662 -0.00509,0.27123 -0.01528,0.34381c-0.01019,0.07131 -0.04139,0.15598 -0.0936,0.25403c-0.09041,0.17572 -0.34444,0.26359 -0.7621,0.26359c-0.41129,0 -0.66215,-0.09105 -0.75255,-0.27313c-0.04584,-0.09805 -0.07385,-0.18463 -0.08404,-0.25976c-0.00892,-0.07513 -0.01337,-0.18782 -0.01337,-0.33808v-1.71139c0,-0.56664 -0.20247,-0.84996 -0.60739,-0.84996c-0.39092,0 -0.58638,0.28332 -0.58638,0.84996v1.7324c0,0.14898 -0.00509,0.26103 -0.01528,0.33616c-0.00892,0.07513 -0.03947,0.16172 -0.09168,0.25977c-0.09805,0.16936 -0.35272,0.25403 -0.76402,0.25403c-0.41002,0 -0.66087,-0.08786 -0.75255,-0.26359c-0.04584,-0.09805 -0.07385,-0.18272 -0.08404,-0.25403c-0.00892,-0.07258 -0.01337,-0.18718 -0.01337,-0.34381v-3.44188c0,-0.15025 0.00446,-0.26231 0.01337,-0.33617c0.01019,-0.07513 0.04138,-0.15853 0.09359,-0.25021c0.09805,-0.17572 0.32917,-0.26358 0.69335,-0.26358c0.36545,0 0.60357,0.05857 0.71435,0.17572c0.11078,0.11715 0.16618,0.28651 0.16618,0.50807zM279.24346,151.66472c0,0.40111 -0.09996,0.6978 -0.29987,0.89007c-0.19864,0.19227 -0.4183,0.28841 -0.65897,0.28841h-2.31687c0,0.18337 0.10696,0.3368 0.32089,0.46032c0.21519,0.12351 0.43039,0.18528 0.64559,0.18528c0.37818,0 0.67488,-0.03884 0.89008,-0.11652l0.10887,-0.04011c0.15663,-0.07131 0.28651,-0.10696 0.38965,-0.10696c0.20883,0 0.38837,0.14643 0.53863,0.4393c0.08531,0.177 0.12797,0.32726 0.12797,0.45077c0,0.58065 -0.69461,0.87097 -2.08384,0.87097c-0.4826,0 -0.91172,-0.0834 -1.28736,-0.25021c-0.37437,-0.16681 -0.66533,-0.3871 -0.87288,-0.66088c-0.41129,-0.52717 -0.61694,-1.11673 -0.61694,-1.76868c0,-0.82131 0.26549,-1.47837 0.79648,-1.97116c0.53226,-0.49279 1.19568,-0.73918 1.99025,-0.73918c0.90663,0 1.57196,0.31961 1.99598,0.95883c0.22156,0.33872 0.33235,0.70863 0.33235,1.10973zM277.17871,151.95313c0.24831,0 0.37246,-0.10378 0.37246,-0.31133c0,-0.15025 -0.0573,-0.27123 -0.1719,-0.36291c-0.11333,-0.09169 -0.27632,-0.13752 -0.48897,-0.13752c-0.21137,0 -0.42149,0.08659 -0.63031,0.25976c-0.20883,0.17317 -0.31324,0.35717 -0.31324,0.552zM283.37821,149.76424c0.12479,0.0382 0.22794,0.10506 0.30943,0.20056c0.0815,0.09422 0.12224,0.24575 0.12224,0.45458c0,0.20756 -0.06239,0.43549 -0.18718,0.68379c-0.12351,0.24703 -0.30242,0.37055 -0.53672,0.37055c-0.11715,0 -0.22984,-0.02547 -0.33808,-0.07641c-0.10696,-0.05221 -0.24831,-0.07831 -0.42403,-0.07831c-0.17572,0 -0.34062,0.06176 -0.4947,0.18527c-0.15281,0.12351 -0.2292,0.27313 -0.2292,0.44886v2.05519c0,0.14898 -0.00509,0.26104 -0.01527,0.33617c-0.00892,0.07513 -0.03948,0.16171 -0.09169,0.25976c-0.09805,0.16936 -0.35272,0.25404 -0.76401,0.25404c-0.31324,0 -0.53799,-0.0554 -0.67424,-0.16618c-0.10442,-0.09169 -0.16299,-0.23175 -0.17572,-0.42021c0,-0.06494 0,-0.15981 0,-0.28459v-3.43232c0,-0.15025 0.00446,-0.26232 0.01337,-0.33617c0.01019,-0.07513 0.03821,-0.15853 0.08405,-0.25021c0.09168,-0.17572 0.34571,-0.26359 0.7621,-0.26359c0.3922,0 0.63668,0.07513 0.73345,0.22539c0.07258,0.10314 0.10887,0.2101 0.10887,0.32089c0.03184,-0.04457 0.07894,-0.09932 0.14134,-0.16426c0.06239,-0.06621 0.19419,-0.15471 0.39538,-0.26549c0.20246,-0.11078 0.38009,-0.16618 0.5329,-0.16618c0.15407,0 0.28269,0.00828 0.38583,0.02483c0.10442,0.01655 0.21839,0.04457 0.3419,0.08404z" stroke="none" stroke-width="0"></path></g></g></g></svg>