<svg version="1.1" xmlns="http://www.w3.org/2000/svg" xmlns:xlink="http://www.w3.org/1999/xlink" width="634.13364" height="228.21896" viewBox="0,0,634.13364,228.21896"><g transform="translate(85.32506,-164.96272)"><g data-paper-data="{&quot;isPaintingLayer&quot;:true}" stroke="none" stroke-linejoin="miter" stroke-miterlimit="10" stroke-dasharray="" stroke-dashoffset="0" style="mix-blend-mode: normal"><g fill-rule="evenodd" stroke-width="1" stroke-linecap="square"><path d="M201.80829,181.23415h30.94166v5.7185h-30.94166z" data-paper-data="{&quot;index&quot;:null}" fill="#c6c6c6"></path><path d="M232.74994,181.23415l8.08463,8.08463v5.7185l-8.08463,-8.08463z" data-paper-data="{&quot;index&quot;:null}" fill="#ebebeb"></path><path d="M232.74996,186.95264l8.08463,8.08463h-30.94166l-8.08463,-8.08463z" data-paper-data="{&quot;index&quot;:null}" fill="#d7d7d7"></path><path d="M201.80829,181.23415h30.94166l8.08463,8.08463v5.7185h-30.94166l-8.08463,-8.08463zM240.83458,195.03728l-8.08463,-8.08463h-30.94166M232.74995,181.23415v5.7185" data-paper-data="{&quot;index&quot;:null}" fill-opacity="0" fill="#000000"></path></g><g fill-rule="evenodd" stroke-width="1" stroke-linecap="square"><path d="M232.63687,181.1913h30.94166v5.7185h-30.94166z" data-paper-data="{&quot;index&quot;:null}" fill="#c6c6c6"></path><path d="M263.57852,181.1913l8.08463,8.08463v5.7185l-8.08463,-8.08463z" data-paper-data="{&quot;index&quot;:null}" fill="#ebebeb"></path><path d="M263.57854,186.90979l8.08463,8.08463h-30.94166l-8.08463,-8.08463z" data-paper-data="{&quot;index&quot;:null}" fill="#d7d7d7"></path><path d="M232.63687,181.1913h30.94166l8.08463,8.08463v5.7185h-30.94166l-8.08463,-8.08463zM271.66316,194.99443l-8.08463,-8.08463h-30.94166M263.57853,181.1913v5.7185" data-paper-data="{&quot;index&quot;:null}" fill-opacity="0" fill="#000000"></path></g><g fill-rule="evenodd" stroke-width="1" stroke-linecap="square"><path d="M224.53687,173.01987h30.94166v5.7185h-30.94166z" data-paper-data="{&quot;index&quot;:null}" fill="#c6c6c6"></path><path d="M255.47852,173.01987l8.08463,8.08463v5.7185l-8.08463,-8.08463z" data-paper-data="{&quot;index&quot;:null}" fill="#ebebeb"></path><path d="M255.47854,178.73836l8.08463,8.08463h-30.94166l-8.08463,-8.08463z" data-paper-data="{&quot;index&quot;:null}" fill="#d7d7d7"></path><path d="M224.53687,173.01987h30.94166l8.08463,8.08463v5.7185h-30.94166l-8.08463,-8.08463zM263.56316,186.823l-8.08463,-8.08463h-30.94166M255.47853,173.01987v5.7185" data-paper-data="{&quot;index&quot;:null}" fill-opacity="0" fill="#000000"></path></g><g fill-rule="evenodd" stroke-width="1" stroke-linecap="square"><path d="M255.39401,173.04844h30.94166v5.7185h-30.94166z" data-paper-data="{&quot;index&quot;:null}" fill="#c6c6c6"></path><path d="M286.33566,173.04844l8.08463,8.08463v5.7185l-8.08463,-8.08463z" data-paper-data="{&quot;index&quot;:null}" fill="#ebebeb"></path><path d="M286.33568,178.76693l8.08463,8.08463h-30.94166l-8.08463,-8.08463z" data-paper-data="{&quot;index&quot;:null}" fill="#d7d7d7"></path><path d="M255.39401,173.04844h30.94166l8.08463,8.08463v5.7185h-30.94166l-8.08463,-8.08463zM294.42029,186.85157l-8.08463,-8.08463h-30.94166M286.33566,173.04844v5.7185" data-paper-data="{&quot;index&quot;:null}" fill-opacity="0" fill="#000000"></path></g><g fill-rule="evenodd" stroke-width="1" stroke-linecap="square"><path d="M247.32258,165.00558h30.94166v5.7185h-30.94166z" data-paper-data="{&quot;index&quot;:null}" fill="#c6c6c6"></path><path d="M278.26422,165.00558l8.08463,8.08463v5.7185l-8.08463,-8.08463z" data-paper-data="{&quot;index&quot;:null}" fill="#ebebeb"></path><path d="M278.26425,170.72407l8.08463,8.08463h-30.94166l-8.08463,-8.08463z" data-paper-data="{&quot;index&quot;:null}" fill="#d7d7d7"></path><path d="M247.32258,165.00558h30.94166l8.08463,8.08463v5.7185h-30.94166l-8.08463,-8.08463zM286.34887,178.80871l-8.08463,-8.08463h-30.94166M278.26424,165.00558v5.7185" data-paper-data="{&quot;index&quot;:null}" fill-opacity="0" fill="#000000"></path></g><g fill-rule="evenodd" stroke-width="1" stroke-linecap="square"><path d="M185.57973,164.96272h30.94166v5.7185h-30.94166z" data-paper-data="{&quot;index&quot;:null}" fill="#c6c6c6"></path><path d="M216.52138,164.96272l8.08463,8.08463v5.7185l-8.08463,-8.08463z" data-paper-data="{&quot;index&quot;:null}" fill="#ebebeb"></path><path d="M216.5214,170.68121l8.08463,8.08463h-30.94166l-8.08463,-8.08463z" data-paper-data="{&quot;index&quot;:null}" fill="#d7d7d7"></path><path d="M185.57973,164.96272h30.94166l8.08463,8.08463v5.7185h-30.94166l-8.08463,-8.08463zM224.60602,178.76585l-8.08463,-8.08463h-30.94166M216.52139,164.96272v5.7185" data-paper-data="{&quot;index&quot;:null}" fill-opacity="0" fill="#000000"></path></g><path d="M-85.32506,388.42718c0,-0.13807 0.11193,-0.25 0.25,-0.25c0.13807,0 0.25,0.11193 0.25,0.25c0,0.13807 -0.11193,0.25 -0.25,0.25c-0.13807,0 -0.25,-0.11193 -0.25,-0.25z" fill="#ffffff" fill-rule="nonzero" stroke-width="0.5" stroke-linecap="butt"></path><path d="M548.30858,392.93168c0,-0.13807 0.11193,-0.25 0.25,-0.25c0.13807,0 0.25,0.11193 0.25,0.25c0,0.13807 -0.11193,0.25 -0.25,0.25c-0.13807,0 -0.25,-0.11193 -0.25,-0.25z" fill="#ffffff" fill-rule="nonzero" stroke-width="0.5" stroke-linecap="butt"></path></g></g></svg>