<svg version="1.1" xmlns="http://www.w3.org/2000/svg" xmlns:xlink="http://www.w3.org/1999/xlink" width="611.61646" height="252.92341" viewBox="0,0,611.61646,252.92341"><g transform="translate(59.0488,-157.09844)"><g data-paper-data="{&quot;isPaintingLayer&quot;:true}" stroke="none" stroke-linejoin="miter" stroke-miterlimit="10" stroke-dasharray="" stroke-dashoffset="0" style="mix-blend-mode: normal"><g fill-rule="evenodd" stroke-width="1" stroke-linecap="square"><path d="M202.1297,189.09845h30.94166v5.7185h-30.94166z" data-paper-data="{&quot;index&quot;:null}" fill="#c6c6c6"></path><path d="M233.07137,189.09845l8.08463,8.08463v5.7185l-8.08463,-8.08463z" data-paper-data="{&quot;index&quot;:null}" fill="#ebebeb"></path><path d="M233.0714,194.81694l8.08463,8.08463h-30.94166l-8.08463,-8.08463z" data-paper-data="{&quot;index&quot;:null}" fill="#d7d7d7"></path><path d="M202.1297,189.09845h30.94166l8.08463,8.08463v5.7185h-30.94166l-8.08463,-8.08463zM241.15599,202.90157l-8.08463,-8.08463h-30.94166M233.0714,189.09845v5.7185" data-paper-data="{&quot;index&quot;:null}" fill-opacity="0" fill="#000000"></path></g><g fill-rule="evenodd" stroke-width="1" stroke-linecap="square"><path d="M232.98685,189.09845h30.94166v5.7185h-30.94166z" data-paper-data="{&quot;index&quot;:null}" fill="#c6c6c6"></path><path d="M263.9285,189.09845l8.08463,8.08463v5.7185l-8.08463,-8.08463z" data-paper-data="{&quot;index&quot;:null}" fill="#ebebeb"></path><path d="M263.92854,194.81694l8.08463,8.08463h-30.94166l-8.08463,-8.08463z" data-paper-data="{&quot;index&quot;:null}" fill="#d7d7d7"></path><path d="M232.98685,189.09845h30.94166l8.08463,8.08463v5.7185h-30.94166l-8.08463,-8.08463zM272.01316,202.90157l-8.08463,-8.08463h-30.94166M263.92854,189.09845v5.7185" data-paper-data="{&quot;index&quot;:null}" fill-opacity="0" fill="#000000"></path></g><g fill-rule="evenodd" stroke-width="1" stroke-linecap="square"><path d="M263.84401,189.09845h30.94166v5.7185h-30.94166z" data-paper-data="{&quot;index&quot;:null}" fill="#c6c6c6"></path><path d="M294.78562,189.09845l8.08463,8.08463v5.7185l-8.08463,-8.08463z" data-paper-data="{&quot;index&quot;:null}" fill="#ebebeb"></path><path d="M294.78562,194.81694l8.08463,8.08463h-30.94166l-8.08463,-8.08463z" data-paper-data="{&quot;index&quot;:null}" fill="#d7d7d7"></path><path d="M263.84401,189.09845h30.94166l8.08463,8.08463v5.7185h-30.94166l-8.08463,-8.08463zM302.87028,202.90157l-8.08463,-8.08463h-30.94166M294.78562,189.09845v5.7185" data-paper-data="{&quot;index&quot;:null}" fill-opacity="0" fill="#000000"></path></g><g fill-rule="evenodd" stroke-width="1" stroke-linecap="square"><path d="M162.92969,180.89844h30.94166v5.7185h-30.94166z" data-paper-data="{&quot;index&quot;:null}" fill="#c6c6c6"></path><path d="M193.87134,180.89844l8.08463,8.08463v5.7185l-8.08463,-8.08463z" data-paper-data="{&quot;index&quot;:null}" fill="#ebebeb"></path><path d="M193.87137,186.61694l8.08463,8.08463h-30.94166l-8.08463,-8.08463z" data-paper-data="{&quot;index&quot;:null}" fill="#d7d7d7"></path><path d="M162.92969,180.89844h30.94166l8.08463,8.08463v5.7185h-30.94166l-8.08463,-8.08463zM201.95599,194.70158l-8.08463,-8.08463h-30.94166M193.87134,180.89844v5.7185" data-paper-data="{&quot;index&quot;:null}" fill-opacity="0" fill="#000000"></path></g><g fill-rule="evenodd" stroke-width="1" stroke-linecap="square"><path d="M193.78685,180.89844h30.94166v5.7185h-30.94166z" data-paper-data="{&quot;index&quot;:null}" fill="#c6c6c6"></path><path d="M224.7285,180.89844l8.08463,8.08463v5.7185l-8.08463,-8.08463z" data-paper-data="{&quot;index&quot;:null}" fill="#ebebeb"></path><path d="M224.72852,186.61694l8.08463,8.08463h-30.94166l-8.08463,-8.08463z" data-paper-data="{&quot;index&quot;:null}" fill="#d7d7d7"></path><path d="M193.78685,180.89844h30.94166l8.08463,8.08463v5.7185h-30.94166l-8.08463,-8.08463zM232.81316,194.70158l-8.08463,-8.08463h-30.94166M224.72851,180.89844v5.7185" data-paper-data="{&quot;index&quot;:null}" fill-opacity="0" fill="#000000"></path></g><g fill-rule="evenodd" stroke-width="1" stroke-linecap="square"><path d="M224.64399,180.89844h30.94166v5.7185h-30.94166z" data-paper-data="{&quot;index&quot;:null}" fill="#c6c6c6"></path><path d="M255.58564,180.89844l8.08463,8.08463v5.7185l-8.08463,-8.08463z" data-paper-data="{&quot;index&quot;:null}" fill="#ebebeb"></path><path d="M255.58568,186.61694l8.08463,8.08463h-30.94166l-8.08463,-8.08463z" data-paper-data="{&quot;index&quot;:null}" fill="#d7d7d7"></path><path d="M224.64399,180.89844h30.94166l8.08463,8.08463v5.7185h-30.94166l-8.08463,-8.08463zM263.6703,194.70158l-8.08463,-8.08463h-30.94166M255.58565,180.89844v5.7185" data-paper-data="{&quot;index&quot;:null}" fill-opacity="0" fill="#000000"></path></g><g fill-rule="evenodd" stroke-width="1" stroke-linecap="square"><path d="M154.9297,172.89844h30.94166v5.7185h-30.94166z" data-paper-data="{&quot;index&quot;:null}" fill="#c6c6c6"></path><path d="M185.87132,172.89844l8.08463,8.08463v5.7185l-8.08463,-8.08463z" data-paper-data="{&quot;index&quot;:null}" fill="#ebebeb"></path><path d="M185.8714,178.61694l8.08463,8.08463h-30.94166l-8.08463,-8.08463z" data-paper-data="{&quot;index&quot;:null}" fill="#d7d7d7"></path><path d="M154.9297,172.89844h30.94166l8.08463,8.08463v5.7185h-30.94166l-8.08463,-8.08463zM193.95601,186.70158l-8.08463,-8.08463h-30.94166M185.87137,172.89844v5.7185" data-paper-data="{&quot;index&quot;:null}" fill-opacity="0" fill="#000000"></path></g><g fill-rule="evenodd" stroke-width="1" stroke-linecap="square"><path d="M185.78687,172.89844h30.94166v5.7185h-30.94166z" data-paper-data="{&quot;index&quot;:null}" fill="#c6c6c6"></path><path d="M216.7285,172.89844l8.08463,8.08463v5.7185l-8.08463,-8.08463z" data-paper-data="{&quot;index&quot;:null}" fill="#ebebeb"></path><path d="M216.72856,178.61694l8.08463,8.08463h-30.94166l-8.08463,-8.08463z" data-paper-data="{&quot;index&quot;:null}" fill="#d7d7d7"></path><path d="M185.78687,172.89844h30.94166l8.08463,8.08463v5.7185h-30.94166l-8.08463,-8.08463zM224.81317,186.70158l-8.08463,-8.08463h-30.94166M216.72852,172.89844v5.7185" data-paper-data="{&quot;index&quot;:null}" fill-opacity="0" fill="#000000"></path></g><g fill-rule="evenodd" stroke-width="1" stroke-linecap="square"><path d="M247.3297,172.69845h30.94166v5.7185h-30.94166z" data-paper-data="{&quot;index&quot;:null}" fill="#c6c6c6"></path><path d="M278.27135,172.69845l8.08463,8.08463v5.7185l-8.08463,-8.08463z" data-paper-data="{&quot;index&quot;:null}" fill="#ebebeb"></path><path d="M278.27136,178.41694l8.08463,8.08463h-30.94166l-8.08463,-8.08463z" data-paper-data="{&quot;index&quot;:null}" fill="#d7d7d7"></path><path d="M247.3297,172.69845h30.94166l8.08463,8.08463v5.7185h-30.94166l-8.08463,-8.08463zM286.35597,186.50157l-8.08463,-8.08463h-30.94166M278.27135,172.69845v5.7185" data-paper-data="{&quot;index&quot;:null}" fill-opacity="0" fill="#000000"></path></g><g fill-rule="evenodd" stroke-width="1" stroke-linecap="square"><path d="M278.18684,172.69845h30.94166v5.7185h-30.94166z" data-paper-data="{&quot;index&quot;:null}" fill="#c6c6c6"></path><path d="M309.12848,172.69845l8.08463,8.08463v5.7185l-8.08463,-8.08463z" data-paper-data="{&quot;index&quot;:null}" fill="#ebebeb"></path><path d="M309.12853,178.41694l8.08463,8.08463h-30.94166l-8.08463,-8.08463z" data-paper-data="{&quot;index&quot;:null}" fill="#d7d7d7"></path><path d="M278.18684,172.69845h30.94166l8.08463,8.08463v5.7185h-30.94166l-8.08463,-8.08463zM317.21312,186.50157l-8.08463,-8.08463h-30.94166M309.12852,172.69845v5.7185" data-paper-data="{&quot;index&quot;:null}" fill-opacity="0" fill="#000000"></path></g><g fill-rule="evenodd" stroke-width="1" stroke-linecap="square"><path d="M177.52968,164.89844h30.94166v5.7185h-30.94166z" data-paper-data="{&quot;index&quot;:null}" fill="#c6c6c6"></path><path d="M208.47138,164.89844l8.08463,8.08463v5.7185l-8.08463,-8.08463z" data-paper-data="{&quot;index&quot;:null}" fill="#ebebeb"></path><path d="M208.47141,170.61694l8.08463,8.08463h-30.94166l-8.08463,-8.08463z" data-paper-data="{&quot;index&quot;:null}" fill="#d7d7d7"></path><path d="M177.52968,164.89844h30.94166l8.08463,8.08463v5.7185h-30.94166l-8.08463,-8.08463zM216.55601,178.70158l-8.08463,-8.08463h-30.94166M208.47139,164.89844v5.7185" data-paper-data="{&quot;index&quot;:null}" fill-opacity="0" fill="#000000"></path></g><g fill-rule="evenodd" stroke-width="1" stroke-linecap="square"><path d="M208.38687,164.89844h30.94166v5.7185h-30.94166z" data-paper-data="{&quot;index&quot;:null}" fill="#c6c6c6"></path><path d="M239.32851,164.89844l8.08463,8.08463v5.7185l-8.08463,-8.08463z" data-paper-data="{&quot;index&quot;:null}" fill="#ebebeb"></path><path d="M239.32853,170.61694l8.08463,8.08463h-30.94166l-8.08463,-8.08463z" data-paper-data="{&quot;index&quot;:null}" fill="#d7d7d7"></path><path d="M208.38687,164.89844h30.94166l8.08463,8.08463v5.7185h-30.94166l-8.08463,-8.08463zM247.41318,178.70158l-8.08463,-8.08463h-30.94166M239.32852,164.89844v5.7185" data-paper-data="{&quot;index&quot;:null}" fill-opacity="0" fill="#000000"></path></g><g fill-rule="evenodd" stroke-width="1" stroke-linecap="square"><path d="M239.24401,164.89844h30.94166v5.7185h-30.94166z" data-paper-data="{&quot;index&quot;:null}" fill="#c6c6c6"></path><path d="M270.18562,164.89844l8.08463,8.08463v5.7185l-8.08463,-8.08463z" data-paper-data="{&quot;index&quot;:null}" fill="#ebebeb"></path><path d="M270.18566,170.61694l8.08463,8.08463h-30.94166l-8.08463,-8.08463z" data-paper-data="{&quot;index&quot;:null}" fill="#d7d7d7"></path><path d="M239.24401,164.89844h30.94166l8.08463,8.08463v5.7185h-30.94166l-8.08463,-8.08463zM278.27027,178.70158l-8.08463,-8.08463h-30.94166M270.18566,164.89844v5.7185" data-paper-data="{&quot;index&quot;:null}" fill-opacity="0" fill="#000000"></path></g><g fill-rule="evenodd" stroke-width="1" stroke-linecap="square"><path d="M301.38685,164.69843h30.94166v5.7185h-30.94166z" data-paper-data="{&quot;index&quot;:null}" fill="#c6c6c6"></path><path d="M332.32849,164.69843l8.08463,8.08463v5.7185l-8.08463,-8.08463z" data-paper-data="{&quot;index&quot;:null}" fill="#ebebeb"></path><path d="M332.32853,170.41694l8.08463,8.08463h-30.94166l-8.08463,-8.08463z" data-paper-data="{&quot;index&quot;:null}" fill="#d7d7d7"></path><path d="M301.38685,164.69843h30.94166l8.08463,8.08463v5.7185h-30.94166l-8.08463,-8.08463zM340.41311,178.50157l-8.08463,-8.08463h-30.94166M332.3285,164.69843v5.7185" data-paper-data="{&quot;index&quot;:null}" fill-opacity="0" fill="#000000"></path></g><g fill-rule="evenodd" stroke-width="1" stroke-linecap="square"><path d="M231.38686,157.09845h30.94166v5.7185h-30.94166z" data-paper-data="{&quot;index&quot;:null}" fill="#c6c6c6"></path><path d="M262.32849,157.09845l8.08463,8.08463v5.7185l-8.08463,-8.08463z" data-paper-data="{&quot;index&quot;:null}" fill="#ebebeb"></path><path d="M262.32854,162.81694l8.08463,8.08463h-30.94166l-8.08463,-8.08463z" data-paper-data="{&quot;index&quot;:null}" fill="#d7d7d7"></path><path d="M231.38686,157.09845h30.94166l8.08463,8.08463v5.7185h-30.94166l-8.08463,-8.08463zM270.41313,170.90157l-8.08463,-8.08463h-30.94166M262.32849,157.09845v5.7185" data-paper-data="{&quot;index&quot;:null}" fill-opacity="0" fill="#000000"></path></g><g fill-rule="evenodd" stroke-width="1" stroke-linecap="square"><path d="M139.58685,157.09845h30.94166v5.7185h-30.94166z" data-paper-data="{&quot;index&quot;:null}" fill="#c6c6c6"></path><path d="M170.5285,157.09845l8.08463,8.08463v5.7185l-8.08463,-8.08463z" data-paper-data="{&quot;index&quot;:null}" fill="#ebebeb"></path><path d="M170.52854,162.81694l8.08463,8.08463h-30.94166l-8.08463,-8.08463z" data-paper-data="{&quot;index&quot;:null}" fill="#d7d7d7"></path><path d="M139.58685,157.09845h30.94166l8.08463,8.08463v5.7185h-30.94166l-8.08463,-8.08463zM178.61315,170.90157l-8.08463,-8.08463h-30.94166M170.52854,157.09845v5.7185" data-paper-data="{&quot;index&quot;:null}" fill-opacity="0" fill="#000000"></path></g><g fill-rule="evenodd" stroke-width="1" stroke-linecap="square"><path d="M170.44401,157.09845h30.94166v5.7185h-30.94166z" data-paper-data="{&quot;index&quot;:null}" fill="#c6c6c6"></path><path d="M201.38562,157.09845l8.08463,8.08463v5.7185l-8.08463,-8.08463z" data-paper-data="{&quot;index&quot;:null}" fill="#ebebeb"></path><path d="M201.38562,162.81694l8.08463,8.08463h-30.94166l-8.08463,-8.08463z" data-paper-data="{&quot;index&quot;:null}" fill="#d7d7d7"></path><path d="M170.44401,157.09845h30.94166l8.08463,8.08463v5.7185h-30.94166l-8.08463,-8.08463zM209.47028,170.90157l-8.08463,-8.08463h-30.94166M201.38562,157.09845v5.7185" data-paper-data="{&quot;index&quot;:null}" fill-opacity="0" fill="#000000"></path></g><path d="M-59.0488,408.26501c0,-0.13807 0.11193,-0.25 0.25,-0.25c0.13807,0 0.25,0.11193 0.25,0.25c0,0.13807 -0.11193,0.25 -0.25,0.25c-0.13807,0 -0.25,-0.11193 -0.25,-0.25z" fill="#ffffff" fill-rule="nonzero" stroke-width="0.5" stroke-linecap="butt"></path><path d="M550.63404,409.94329c-0.17678,-0.17678 0,-0.35355 0,-0.35355c0.4714,-0.4714 1.0301,-1.0301 1.5015,-1.5015c0,0 0.17678,-0.17678 0.35355,0c0.17678,0.17678 0,0.35355 0,0.35355c-0.4714,0.4714 -0.94281,0.94281 -1.41421,1.41421l-0.08729,0.08729c0,0 -0.17678,0.17678 -0.35355,0z" fill="#ffffff" fill-rule="nonzero" stroke-width="0.5" stroke-linecap="butt"></path></g></g></svg>