<svg version="1.1" xmlns="http://www.w3.org/2000/svg" xmlns:xlink="http://www.w3.org/1999/xlink" width="272.18001" height="28.02763" viewBox="0,0,272.18001,28.02763"><defs><linearGradient x1="241.47149" y1="259.1044" x2="241.47149" y2="275.021" gradientUnits="userSpaceOnUse" id="color-1"><stop offset="0" stop-color="#f9f9f9"></stop><stop offset="1" stop-color="#ffffff"></stop></linearGradient></defs><g transform="translate(-105.38148,-253.04888)"><g data-paper-data="{&quot;isPaintingLayer&quot;:true}" fill="url(#color-1)" fill-rule="nonzero" stroke="#000000" stroke-width="1.5" stroke-linecap="butt" stroke-linejoin="miter" stroke-miterlimit="10" stroke-dasharray="" stroke-dashoffset="0" style="mix-blend-mode: normal"><path d="M122.67898,255.31838c0.22286,-0.40723 0.55513,-0.68074 0.9968,-0.82054c0.4437,-0.1398 0.9968,-0.20969 1.65931,-0.20969c0.66453,0 1.20042,0.05774 1.60764,0.17322c0.40723,0.11751 0.71012,0.2573 0.90867,0.41939c0.19855,0.16411 0.34442,0.40926 0.43762,0.73544c0.1398,0.37279 0.20969,0.96641 0.20969,1.78087v19.39811c0,0.55918 -0.01722,0.96641 -0.05166,1.22169c-0.03444,0.2573 -0.14486,0.56121 -0.33125,0.91171c-0.32619,0.62806 -1.23486,0.9421 -2.72601,0.9421c-0.90968,0 -1.53876,-0.0699 -1.88724,-0.20969c-0.3505,-0.1398 -0.64225,-0.36164 -0.87524,-0.66555c-5.24131,-6.98976 -8.68959,-11.5564 -10.34485,-13.69993v11.49968c0,0.55918 -0.01722,0.96641 -0.05166,1.22169c-0.03444,0.2573 -0.14587,0.56121 -0.33429,0.91171c-0.32619,0.62806 -1.23384,0.9421 -2.72297,0.9421c-1.44455,0 -2.32992,-0.31403 -2.65611,-0.9421c-0.18639,-0.3505 -0.29782,-0.66555 -0.33429,-0.94514c-0.03444,-0.27959 -0.05166,-0.68783 -0.05166,-1.22473v-19.50143c0,-0.88537 0.11042,-1.53167 0.33125,-1.9389c0.22286,-0.40723 0.55513,-0.68074 0.9968,-0.82054c0.4437,-0.1398 1.01503,-0.20969 1.71401,-0.20969c0.69695,0 1.25005,0.06382 1.65931,0.19146c0.40723,0.12764 0.6929,0.27351 0.85701,0.43762c0.0932,0.06888 0.36063,0.37177 0.8023,0.90867c4.91714,6.68586 8.20233,11.10055 9.85556,13.24408v-11.8127c0,-0.88537 0.11042,-1.53167 0.33125,-1.9389zM149.04862,268.45913c0,1.43239 -0.35557,2.49302 -1.0667,3.18186c-0.70911,0.68682 -1.4952,1.03023 -2.35828,1.03023h-8.28135c0,0.65238 0.38393,1.1994 1.15179,1.64107c0.76786,0.4437 1.53673,0.66555 2.30662,0.66555c1.35135,0 2.41096,-0.1398 3.17882,-0.41939l0.38596,-0.1398c0.55918,-0.2573 1.02517,-0.38596 1.39795,-0.38596c0.74557,0 1.38681,0.52474 1.9237,1.57422c0.30188,0.62806 0.45281,1.16395 0.45281,1.60764c0,2.07464 -2.48086,3.11196 -7.44258,3.11196c-1.72414,0 -3.25682,-0.29782 -4.59805,-0.89347c-1.3392,-0.59362 -2.38158,-1.37972 -3.12716,-2.35828c-1.46886,-1.88825 -2.20329,-3.99733 -2.20329,-6.32725c0,-2.9357 0.9502,-5.28284 2.85061,-7.04142c1.89838,-1.75858 4.26882,-2.63787 7.11132,-2.63787c3.2396,0 5.61612,1.14166 7.12956,3.42498c0.79217,1.21156 1.18826,2.53353 1.18826,3.96593zM141.67594,269.48936c0.88334,0 1.32502,-0.37279 1.32502,-1.11836c0,-0.53487 -0.20361,-0.9654 -0.61084,-1.29159c-0.40723,-0.32619 -0.98971,-0.48928 -1.74744,-0.48928c-0.75773,0 -1.50837,0.30897 -2.25192,0.9269c-0.7476,0.61591 -1.1214,1.27335 -1.1214,1.97233zM174.8773,261.59093c1.48912,0.65238 2.23368,1.45671 2.23368,2.41299c0,0.39507 -0.18639,1.03023 -0.55918,1.90547c-0.37076,0.87321 -0.68479,1.63601 -0.9421,2.28839l-3.84437,9.36628c-0.3505,1.02517 -0.93298,1.74744 -1.74744,2.16683c-0.3505,0.16411 -0.79319,0.24616 -1.32805,0.24616c-0.53487,0 -1.05353,-0.20463 -1.55598,-0.61388c-0.50043,-0.40723 -0.83168,-0.82054 -0.99376,-1.23992l-0.28263,-0.59565c-0.18437,-0.46598 -0.87119,-2.28231 -2.06046,-5.44897c-0.23299,0.55716 -0.5764,1.47089 -1.03023,2.7412c-0.45383,1.27031 -0.74557,2.06249 -0.87524,2.37652c-0.12764,0.31403 -0.20868,0.52373 -0.24312,0.62908c-0.03647,0.10535 -0.13574,0.29782 -0.29782,0.57742c-0.16208,0.27959 -0.34847,0.52373 -0.55918,0.73241c-0.55918,0.56121 -1.20042,0.84181 -1.9237,0.84181c-0.72126,0 -1.32603,-0.20463 -1.8143,-0.61388c-0.4903,-0.40723 -0.81648,-0.82054 -0.97857,-1.23992l-5.27879,-12.86116c-0.23299,-0.69898 -0.34949,-1.1528 -0.34949,-1.36148c0,-0.93399 0.66352,-1.66843 1.99056,-2.20329c0.7476,-0.3039 1.35338,-0.45585 1.81734,-0.45585c0.46598,0 0.84485,0.09927 1.1366,0.29782c0.29175,0.19855 0.49536,0.3971 0.61084,0.59565c0.11751,0.19652 0.21172,0.40014 0.28263,0.61084c0.39507,0.93197 1.22169,3.12209 2.47985,6.57037l2.06046,-5.66171c0.1398,-0.46598 0.39609,-0.87423 0.76887,-1.22473c0.67669,-0.67466 1.36452,-1.012 2.0635,-1.012c0.69898,0 1.29868,0.18639 1.7991,0.55918c0.50043,0.37279 0.84384,0.74557 1.03023,1.11836l0.28263,0.59261c1.16496,3.26189 1.85178,5.12684 2.06046,5.59485l2.1334,-5.80454c0.55918,-1.49115 1.39694,-2.23672 2.51327,-2.23672c0.4437,0 0.91069,0.1165 1.40099,0.34949zM201.22566,264.42331h6.15099c1.26018,0.0466 2.03007,0.37279 2.30966,0.97857c0.23299,0.44167 0.34949,1.09405 0.34949,1.95713v7.68874c0,0.74557 -0.32619,1.45569 -0.97857,2.13036c-1.95713,2.02804 -4.89283,3.04207 -8.8071,3.04207c-3.47259,0 -6.49035,-1.31083 -9.05326,-3.9325c-2.56291,-2.62167 -3.84437,-5.78428 -3.84437,-9.48784c0,-3.70559 1.30476,-6.7983 3.91427,-9.27815c2.60951,-2.48187 5.685,-3.72281 9.22648,-3.72281c2.74931,0 5.34767,0.90867 7.7951,2.72601c0.62806,0.46598 0.9421,0.98464 0.9421,1.55598c0,0.56931 -0.26743,1.22777 -0.8023,1.97537c-0.90968,1.23384 -1.73731,1.85077 -2.48288,1.85077c-0.44167,0 -1.15179,-0.32011 -2.13036,-0.96033c-0.98059,-0.64225 -2.14555,-0.96337 -3.49488,-0.96337c-1.77074,0 -3.34394,0.62401 -4.71961,1.87204c-1.37364,1.246 -2.06046,2.87694 -2.06046,4.89283c0,2.01589 0.69898,3.72787 2.09693,5.13595c1.39593,1.41011 2.97926,2.11516 4.75,2.11516c1.28247,0 2.43629,-0.20969 3.46145,-0.62908v-3.81094h-2.75944c-0.72329,0 -1.23587,-0.09218 -1.53775,-0.27655c-0.3039,-0.18842 -0.50245,-0.46295 -0.59565,-0.82358c-0.0932,-0.36063 -0.1398,-0.84991 -0.1398,-1.46785c0,-0.61794 0.05268,-1.1133 0.15803,-1.48608c0.10535,-0.37279 0.29782,-0.62908 0.57742,-0.76887c0.41736,-0.20868 0.97553,-0.31302 1.6745,-0.31302zM224.78419,263.41131c0.1398,-1.30678 1.05961,-1.96017 2.75944,-1.96017c0.90968,0 1.58536,0.07091 2.02703,0.21273c0.4437,0.13777 0.75267,0.3819 0.9269,0.73241c0.17424,0.34847 0.27858,0.65744 0.31302,0.9269c0.03647,0.26743 0.0547,0.6696 0.0547,1.20649v12.22904c0,0.53689 -0.01823,0.93906 -0.0547,1.20649c-0.03444,0.26743 -0.1327,0.5764 -0.29479,0.9269c-0.32619,0.60578 -1.12444,0.90867 -2.39475,0.90867c-1.27031,0 -2.12124,-0.15702 -2.55278,-0.47105c-0.42952,-0.31403 -0.67973,-0.77495 -0.75064,-1.38276c-0.86106,1.23587 -2.29953,1.85381 -4.31542,1.85381c-2.01589,0 -3.8859,-0.92082 -5.61004,-2.76247c-1.72414,-1.83962 -2.58621,-3.97707 -2.58621,-6.41235c0,-2.43527 0.86815,-4.56664 2.60445,-6.39411c1.7363,-1.82949 3.64075,-2.74424 5.71337,-2.74424c0.79217,0 1.51445,0.1398 2.16683,0.41939c0.65238,0.27959 1.10722,0.54196 1.36452,0.78711c0.25528,0.24312 0.46497,0.48219 0.62908,0.71721zM218.42351,270.67762c0,0.76989 0.30289,1.4638 0.90867,2.08173c0.60578,0.61591 1.3392,0.92386 2.20026,0.92386c0.86308,0 1.57928,-0.31403 2.14859,-0.9421c0.57134,-0.63009 0.85701,-1.32299 0.85701,-2.07869c0,-0.75773 -0.27351,-1.46279 -0.82054,-2.11516c-0.54702,-0.65238 -1.28146,-0.97857 -2.20329,-0.97857c-0.91981,0 -1.66539,0.32619 -2.23672,0.97857c-0.56931,0.65238 -0.85397,1.3625 -0.85397,2.13036zM239.67238,263.90059c1.09405,-1.65526 2.40995,-2.48288 3.9477,-2.48288c2.37652,0 4.14726,1.01301 5.31222,3.03903c0.2573,-0.34847 0.56627,-0.71518 0.9269,-1.10013c0.36063,-0.38292 0.93703,-0.8023 1.72921,-1.25816c0.79217,-0.45383 1.60764,-0.68074 2.44642,-0.68074c1.86394,0 3.42498,0.7162 4.68314,2.14859c1.25816,1.43239 1.88724,3.80284 1.88724,7.11132v6.11756c0,0.53487 -0.01722,0.93703 -0.05166,1.20649c-0.03444,0.26743 -0.14486,0.5764 -0.33125,0.9269c-0.3039,0.62806 -1.20143,0.9421 -2.69258,0.9421c-1.46684,0 -2.36335,-0.32619 -2.68954,-0.97857c-0.16411,-0.3505 -0.26338,-0.65947 -0.29782,-0.9269c-0.03444,-0.26743 -0.05166,-0.6696 -0.05166,-1.20649v-6.11452c0,-2.02804 -0.72227,-3.04207 -2.16683,-3.04207c-0.81648,0 -1.3706,0.26845 -1.66235,0.80534c-0.28972,0.53487 -0.43458,1.29159 -0.43458,2.27015v6.11756c0,0.55918 -0.01823,0.96641 -0.0547,1.22169c-0.03444,0.2573 -0.14486,0.56121 -0.33125,0.91171c-0.32619,0.62806 -1.23486,0.9421 -2.72601,0.9421c-1.46684,0 -2.36335,-0.32619 -2.68954,-0.97857c-0.16411,-0.3505 -0.26338,-0.65947 -0.29782,-0.9269c-0.03444,-0.26743 -0.05166,-0.6696 -0.05166,-1.20649v-6.11452c0,-2.02804 -0.72227,-3.04207 -2.16683,-3.04207c-1.39795,0 -2.09693,1.01402 -2.09693,3.04207v6.18442c0,0.53689 -0.01823,0.93906 -0.0547,1.20649c-0.03444,0.26946 -0.14486,0.57843 -0.33125,0.9269c-0.34847,0.60578 -1.25714,0.90867 -2.72601,0.90867c-1.46684,0 -2.36335,-0.31403 -2.68954,-0.9421c-0.16411,-0.3505 -0.26338,-0.6544 -0.29782,-0.91171c-0.03444,-0.25528 -0.05166,-0.66251 -0.05166,-1.22169v-12.30198c0,-0.53689 0.01722,-0.93906 0.05166,-1.20649c0.03444,-0.26743 0.14486,-0.56425 0.33125,-0.89043c0.3505,-0.63009 1.17813,-0.94514 2.48288,-0.94514c1.30476,0 2.15467,0.20969 2.54974,0.62908c0.3971,0.41939 0.59565,1.02618 0.59565,1.82038zM281.15509,268.45913c0,1.43239 -0.35557,2.49302 -1.0667,3.18186c-0.71113,0.68682 -1.49723,1.03023 -2.35828,1.03023h-8.28135c0,0.65238 0.38393,1.1994 1.15179,1.64107c0.76989,0.4437 1.53876,0.66555 2.30662,0.66555c1.35135,0 2.41197,-0.1398 3.18186,-0.41939l0.38292,-0.1398c0.55918,-0.2573 1.02517,-0.38596 1.39795,-0.38596c0.74557,0 1.3858,0.52474 1.92066,1.57422c0.3039,0.62806 0.45585,1.16395 0.45585,1.60764c0,2.07464 -2.48187,3.11196 -7.44561,3.11196c-1.72414,0 -3.25581,-0.29782 -4.59501,-0.89347c-1.3392,-0.59362 -2.38158,-1.37972 -3.12716,-2.35828c-1.46684,-1.88825 -2.20026,-3.99733 -2.20026,-6.32725c0,-2.9357 0.94919,-5.28284 2.84757,-7.04142c1.89838,-1.75858 4.26882,-2.63787 7.11132,-2.63787c3.23758,0 5.6141,1.14166 7.12956,3.42498c0.79217,1.21156 1.18826,2.53353 1.18826,3.96593zM273.77937,269.48936c0.8874,0 1.33109,-0.37279 1.33109,-1.11836c0,-0.53487 -0.20463,-0.9654 -0.61388,-1.29159c-0.40723,-0.32619 -0.98971,-0.48928 -1.74744,-0.48928c-0.7557,0 -1.50634,0.30897 -2.25192,0.9269c-0.7476,0.61591 -1.1214,1.27335 -1.1214,1.97233zM304.2912,253.93866c3.44828,0 6.44274,1.246 8.98336,3.738c2.5386,2.49403 3.8079,5.58776 3.8079,9.28119c0,3.6914 -1.21156,6.8368 -3.63468,9.43618c-2.42312,2.59735 -5.40541,3.89603 -8.94689,3.89603c-3.54148,0 -6.55315,-1.28146 -9.03503,-3.84437c-2.47985,-2.56291 -3.71977,-5.61511 -3.71977,-9.15659c0,-1.93485 0.34949,-3.74611 1.04846,-5.43378c0.69695,-1.6897 1.6279,-3.10588 2.79287,-4.24856c1.16496,-1.14065 2.50517,-2.03716 4.02063,-2.68954c1.51546,-0.65238 3.07651,-0.97857 4.68314,-0.97857zM297.93052,267.11284c0,2.07464 0.6696,3.75826 2.0088,5.05086c1.34122,1.2926 2.83845,1.9389 4.49168,1.9389c1.65323,0 3.14438,-0.62908 4.47345,-1.88724c1.32704,-1.25816 1.99056,-2.94684 1.99056,-5.06606c0,-2.12124 -0.6696,-3.82208 -2.0088,-5.10253c-1.3392,-1.28247 -2.83541,-1.9237 -4.48864,-1.9237c-1.65526,0 -3.14742,0.64731 -4.47649,1.94194c-1.32704,1.2926 -1.99056,2.97521 -1.99056,5.04782zM336.09461,255.19682c0.23299,-0.37279 0.57032,-0.62908 1.012,-0.76887c0.4437,-0.1398 0.99781,-0.20969 1.66235,-0.20969c0.66453,0 1.19434,0.05774 1.58941,0.17322c0.39507,0.11751 0.69796,0.25832 0.90867,0.42242c0.21071,0.16208 0.36266,0.40622 0.45585,0.73241c0.13777,0.39507 0.20665,1.00085 0.20665,1.81734v10.55454c0,3.07549 -0.95425,5.8714 -2.86276,8.38771c-0.93197,1.18725 -2.13238,2.14859 -3.60125,2.88404c-1.46684,0.73342 -3.0917,1.10013 -4.8746,1.10013c-1.78289,0 -3.4027,-0.37279 -4.8594,-1.11836c-1.45671,-0.74557 -2.63889,-1.72414 -3.54654,-2.9357c-1.88622,-2.46971 -2.82933,-5.26562 -2.82933,-8.38771v-10.51807c0,-0.56121 0.01722,-0.97553 0.05166,-1.24296c0.03444,-0.26743 0.14486,-0.5764 0.33125,-0.9269c0.18639,-0.34847 0.50144,-0.59261 0.94514,-0.73241c0.44167,-0.1398 1.03529,-0.20969 1.78087,-0.20969c0.74557,0 1.34021,0.0699 1.78391,0.20969c0.44167,0.1398 0.74456,0.38393 0.90867,0.73241c0.27959,0.53689 0.41939,1.27133 0.41939,2.20329v10.48464c0,1.42024 0.34847,2.77159 1.04543,4.05406c0.3505,0.65238 0.87524,1.1761 1.57422,1.57118c0.69898,0.3971 1.5266,0.59565 2.48288,0.59565c1.69983,0 2.96913,-0.62908 3.8079,-1.88724c0.83877,-1.25816 1.25816,-2.71486 1.25816,-4.37012v-10.69433c0,-0.90766 0.1165,-1.54788 0.34949,-1.92066zM346.40603,254.21825h19.4285c0.7476,0 1.29564,0.08712 1.64411,0.26136c0.3505,0.17424 0.58349,0.44876 0.69898,0.82358c0.11751,0.37076 0.17626,0.85903 0.17626,1.46481c0,0.60578 -0.05876,1.09 -0.17626,1.45265c-0.11548,0.36063 -0.31403,0.61084 -0.59565,0.75064c-0.41736,0.21071 -1.01098,0.31606 -1.78087,0.31606h-6.6737v17.57773c0,0.53487 -0.01823,0.93096 -0.0547,1.18826c-0.03444,0.2573 -0.13878,0.55412 -0.31302,0.89043c-0.17626,0.33835 -0.48523,0.57742 -0.9269,0.71721c-0.4437,0.1398 -1.02618,0.20969 -1.74744,0.20969c-0.72329,0 -1.29969,-0.0699 -1.72921,-0.20969c-0.43154,-0.1398 -0.73443,-0.37886 -0.90867,-0.71721c-0.17626,-0.33632 -0.28162,-0.63921 -0.31606,-0.90867c-0.03444,-0.26743 -0.05166,-0.6696 -0.05166,-1.20649v-17.54126h-6.71017c-0.74557,0 -1.2926,-0.08813 -1.64107,-0.2644c-0.3505,-0.17424 -0.58451,-0.44775 -0.70202,-0.82054c-0.11548,-0.37279 -0.17322,-0.86207 -0.17322,-1.46785c0,-0.60578 0.05774,-1.08898 0.17322,-1.44962c0.11751,-0.36266 0.31606,-0.61388 0.59565,-0.75368c0.41939,-0.20868 1.01402,-0.31302 1.78391,-0.31302zM370.62403,274.54022c0.23299,-0.45383 0.58856,-0.7628 1.0667,-0.9269c0.47814,-0.16208 1.22371,-0.24312 2.23672,-0.24312c1.01301,0 1.74643,0.22084 2.20026,0.66251c0.45585,0.4437 0.68378,1.14369 0.68378,2.09997v0.55918c0,0.55716 -0.01823,0.97046 -0.0547,1.23992c-0.03444,0.26743 -0.14486,0.58755 -0.33125,0.96033c-0.37279,0.67669 -1.26423,1.01503 -2.67434,1.01503c-1.40808,0 -2.34005,-0.22793 -2.7959,-0.68378c-0.45383,-0.45383 -0.68074,-1.33312 -0.68074,-2.63787c0,-0.90766 0.1165,-1.58941 0.34949,-2.04526zM375.30717,270.46793c-0.44167,0.11751 -1.03529,0.17626 -1.78087,0.17626c-0.74557,0 -1.34021,-0.05876 -1.78391,-0.17626c-0.44167,-0.11548 -0.75064,-0.32518 -0.9269,-0.62908c-0.17424,-0.30188 -0.27858,-0.56931 -0.31302,-0.8023c-0.03444,-0.23299 -0.05166,-0.59464 -0.05166,-1.08493v-11.07725c0,-0.4903 0.01722,-0.85701 0.05166,-1.10013c0.03444,-0.24515 0.14486,-0.51967 0.33125,-0.82358c0.18639,-0.30188 0.50144,-0.51663 0.94514,-0.64427c0.44167,-0.12966 1.03529,-0.1945 1.78087,-0.1945c0.74557,0 1.34021,0.06483 1.78391,0.1945c0.44167,0.12764 0.74963,0.34847 0.92386,0.66251c0.17626,0.31403 0.28162,0.59362 0.31606,0.83877c0.03444,0.24515 0.05166,0.61186 0.05166,1.10013v11.08029c0,0.48827 -0.01722,0.8489 -0.05166,1.08189c-0.03444,0.23502 -0.14486,0.49739 -0.33125,0.78711c-0.18639,0.29175 -0.50144,0.49536 -0.94514,0.61084z"></path></g></g></svg>